<?xml version="1.0" encoding="UTF-8"?>
<svg width="128px" height="128px" viewBox="0 0 128 128" version="1.1" xmlns="http://www.w3.org/2000/svg" xmlns:xlink="http://www.w3.org/1999/xlink">
    <title>TraefikEnterprise-icon-black</title>
    <style>
        path {
            fill: #000;
        }

        @media (prefers-color-scheme: dark) {
            path {
                fill: #fff;
            }
        }
    </style>
    <defs>
        <rect id="path-1" x="0" y="0" width="128" height="128"></rect>
    </defs>
    <g id="TraefikEnterprise-icon-black" stroke="none" stroke-width="1" fill="none" fill-rule="evenodd">
        <mask id="mask-2" fill="white">
            <use xlink:href="#path-1"></use>
        </mask>
        <g id="Rectangle"></g>
        <path d="M66.0444324,5.32895536 L66.230387,5.4295776 L117.576463,34.688498 C120.813151,36.5328841 120.792092,41.1754668 117.607921,43.0115501 L117.434315,43.107195 L105.298164,49.4894359 C104.516063,49.9007326 104.215466,50.8681727 104.626763,51.6502739 C104.769328,51.9213678 104.98671,52.145844 105.253088,52.2970379 L117.747927,59.3890157 C120.947232,61.2050038 120.983983,65.7722959 117.882591,67.6587368 L117.710312,67.7589422 L105.060798,74.7883193 C104.288392,75.2175476 104.010192,76.1916642 104.43942,76.9640697 C104.590578,77.2360811 104.817777,77.4581094 105.093196,77.6029658 L117.434315,84.0937762 L117.607921,84.1894211 C120.735232,85.9927172 120.81139,90.5031756 117.746741,92.4110219 L117.576463,92.5124732 L66.230387,121.771394 L66.0444324,121.872016 C64.6687193,122.577806 63.0358045,122.577261 61.6605631,121.870552 L61.4746757,121.769805 L10.4207518,92.6321728 L10.2502805,92.5304465 C7.18232049,90.6174865 7.26786933,86.0981313 10.406028,84.3026497 L10.5802271,84.2074477 L23.26082,77.5933649 C24.0443032,77.1847071 24.3481593,76.2182859 23.9395015,75.4348026 C23.7958093,75.1593142 23.575013,74.9316243 23.3040711,74.779533 L10.564307,67.628154 C7.36539147,65.8324665 7.29600795,61.2820686 10.3707934,59.3712789 L10.5416272,59.2697042 L22.9381495,52.2218805 C23.706334,51.7851428 23.9750247,50.8083604 23.538287,50.0401759 C23.3861804,49.7726332 23.1601408,49.5546356 22.8872658,49.4123164 L10.5802271,42.9935235 C7.27202268,41.2680417 7.1265394,36.6182659 10.2502805,34.6705248 L10.4207518,34.5687984 L61.4746757,5.43116587 C62.8868263,4.62521951 64.6061869,4.59108384 66.0444324,5.32895536 Z M90.9353326,82.6399483 L66.3318558,96.3148649 C64.9387587,97.0891422 63.2569039,97.1193791 61.8417039,96.4067498 L61.6504271,96.3049687 L37.3905061,82.6863529 C36.4480996,82.157321 35.3023318,82.1397176 34.344118,82.6395488 L25.4145441,87.2974646 C24.6310727,87.7061452 24.3272448,88.6725753 24.7359254,89.4560467 C24.8778297,89.7280879 25.0949623,89.9535902 25.3614445,90.1056772 L62.2710785,111.17079 C63.2534368,111.731442 64.4587947,111.731848 65.4415306,111.171858 L102.670693,89.9576237 C103.438449,89.5201342 103.706183,88.5430892 103.268694,87.7753326 C103.117529,87.5100503 102.893614,87.2935597 102.623387,87.1514216 L93.9796177,82.6048349 C93.0239293,82.1021468 91.8791721,82.1153507 90.9353326,82.6399483 Z M62.4221061,40.8183844 L25.134245,62.0162335 C24.3660472,62.4529478 24.0973267,63.429722 24.534041,64.1979198 C24.6778792,64.4509369 24.8880069,64.6599281 25.1418004,64.802392 L62.4517976,85.7458978 C63.4204372,86.2896317 64.6017614,86.2921356 65.5726973,85.752513 L103.086963,64.9029911 C103.859345,64.47372 104.137491,63.4995879 103.70822,62.7272062 C103.565544,62.4704909 103.35496,62.2579998 103.099542,62.1130147 L65.5832738,40.8173637 C64.6029261,40.2608813 63.4020941,40.261269 62.4221061,40.8183844 Z M62.2702859,16.0301618 L25.3615344,37.0951811 C24.5940765,37.5331942 24.3270086,38.5104216 24.7650217,39.2778796 C24.9171201,39.5443765 25.1426419,39.7615169 25.4147054,39.9034182 L33.8782236,44.3177729 C34.8418626,44.8203823 35.9947355,44.7995262 36.9395649,44.2623915 L61.6277473,30.2271812 C63.0338019,29.4278374 64.7429448,29.392534 66.1758421,30.1214641 L66.3694705,30.2256007 L91.2810487,44.3663466 C92.230044,44.9050319 93.3881267,44.9229906 94.3533688,44.4139899 L102.627982,40.0505417 C103.409618,39.6383619 103.709121,38.6705829 103.296942,37.8889467 C103.154784,37.6193672 102.938591,37.3959956 102.673798,37.2451115 L65.4407382,16.0290672 C64.4579977,15.4690846 63.2526396,15.4695007 62.2702859,16.0301618 Z" id="Shape" fill="none" fill-rule="nonzero" mask="url(#mask-2)"></path>
    </g>
</svg>