<?xml version="1.0" encoding="UTF-8"?>
<svg width="128px" height="128px" viewBox="0 0 128 128" version="1.1" xmlns="http://www.w3.org/2000/svg" xmlns:xlink="http://www.w3.org/1999/xlink">
    <title>TraefikProxy-icon-black</title>
    <style>
        path {
            fill: #000;
        }

        @media (prefers-color-scheme: dark) {
            path {
                fill: #fff;
            }
        }
    </style>
    <defs>
        <rect id="path-1" x="0" y="0" width="128" height="128"></rect>
    </defs>
    <g id="TraefikProxy-icon-black" stroke="none" stroke-width="1" fill="none" fill-rule="evenodd">
        <mask id="mask-2" fill="white">
            <use xlink:href="#path-1"></use>
        </mask>
        <g id="Rectangle"></g>
        <g id="Group" mask="url(#mask-2)" fill="#000000" fill-rule="nonzero">
            <g transform="translate(9.000000, 14.000000)" id="Shape">
                <path d="M55.5000945,0 C60.534079,0 65.0088027,3.55350399 65.0088027,7.93060089 C65.0088027,12.3074995 60.7481956,15.8612018 55.5000945,15.8612018 C54.89964,15.8612018 54.1159101,15.7628142 53.148905,15.5660391 C52.3977705,15.4131854 51.6167386,15.5379356 50.9504502,15.9171815 L16.8582123,35.3222049 C16.0973861,35.755261 15.8313839,36.7236073 16.2640796,37.4850671 C16.406547,37.7357818 16.6146243,37.9428718 16.8659226,38.0840547 L53.8227471,58.8469001 C54.7822103,59.3859395 55.9523515,59.3884122 56.9140804,58.8534326 L94.0711837,38.1841033 C94.8362184,37.7585386 95.1117001,36.7928507 94.6864895,36.027179 C94.5451634,35.7726949 94.3365764,35.5620525 94.0835824,35.4183309 L82.4903355,28.8324068 C81.5296794,28.2866747 80.3544322,28.2808583 79.3884304,28.8170552 L67.1494337,35.6105348 C66.8407138,35.7819033 66.637467,36.0919943 66.5999049,36.4384868 L66.5936032,36.5551921 L66.5936032,36.5551921 C66.5936032,40.9320907 62.3329961,44.485793 57.084895,44.485793 C51.836794,44.485793 47.5759971,40.9320907 47.5759971,36.5551921 C47.5759971,32.1780952 51.836794,28.6245912 57.084895,28.6245912 C57.2798697,28.6245912 57.5037439,28.6351548 57.7565177,28.6562819 L58.157353,28.6958953 L58.157353,28.6958953 L58.6015377,28.751354 L58.6015377,28.751354 C59.2788818,28.8435112 59.9678439,28.7140366 60.5656502,28.3822469 L78.665229,18.3367643 C80.0512284,17.5674767 81.7243752,17.5420339 83.1283073,18.2576746 L83.3180316,18.3598552 L108.592559,32.7181165 C111.761471,34.518351 111.797873,39.0460224 108.725944,40.9160986 L108.555301,41.0154348 L91.6480182,50.4198278 C90.8829721,50.8453718 90.6074643,51.8110523 91.0326543,52.5767355 C91.1823772,52.8463568 91.4074044,53.0664336 91.6801841,53.2100205 L108.426705,62.0251157 C111.750811,63.7748336 111.830692,68.5097454 108.567503,70.3707814 L57.7091987,99.3758839 C56.2490925,100.2086 54.4582153,100.208001 52.9986651,99.3743094 L2.42973738,70.4894426 C-0.837328569,68.6233013 -0.747593685,63.8788594 2.5876977,62.1378011 L19.5168832,53.2997925 C20.2929133,52.8946601 20.5938586,51.9366148 20.1890633,51.1599384 C20.0467285,50.8868422 19.8280226,50.6611322 19.5596491,50.510367 L2.42714917,40.8857812 C-0.741377668,39.1056711 -0.810102063,34.5947474 2.23547386,32.7005335 L2.40468483,32.59984 L44.4818414,8.65127468 C45.1479754,8.27213759 45.6525238,7.66543065 45.905281,6.94557077 L45.9592147,6.77712054 L45.9592147,6.77712054 C47.436185,2.37559758 50.7972868,0 55.5000945,0 Z M78.9788362,58.4205329 L58.2000604,70.3768893 L58.0091964,70.4809843 C56.5965734,71.2099726 54.9076515,71.1826818 53.5146791,70.3966932 L32.8022037,58.7106783 C31.8705428,58.1850336 30.7372859,58.1671237 29.7895865,58.6630673 L17.8503116,64.9110462 C17.0760098,65.3162485 16.7757093,66.2745082 17.1795716,67.0513791 C17.3198139,67.3211495 17.5344156,67.544769 17.797796,67.6955815 L54.275398,88.5827903 C55.2462517,89.1387047 56.4374886,89.1390936 57.4087027,88.5838132 L94.2013623,67.5480355 C94.9601128,67.1142287 95.2246947,66.1454291 94.7923224,65.3841612 C94.6429145,65.121102 94.4216007,64.9064311 94.1545148,64.7654976 L82.0242344,58.3647018 C81.0664434,57.8593034 79.9175855,57.8803653 78.9788362,58.4205329 Z"></path>
            </g>
        </g>
    </g>
</svg>