<svg xmlns="http://www.w3.org/2000/svg" width="184" height="70" viewBox="0 0 184 70">
    <defs>
        <filter id="5npzjvu8xa">
            <feColorMatrix in="SourceGraphic" values="0 0 0 0 0.000000 0 0 0 0 0.000000 0 0 0 0 0.000000 0 0 0 1.000000 0"/>
        </filter>
        <filter id="a8hzhjgf7b">
            <feColorMatrix in="SourceGraphic" values="0 0 0 0 0.858824 0 0 0 0 0.490196 0 0 0 0 0.066667 0 0 0 1.000000 0"/>
        </filter>
    </defs>
    <g fill="none" fill-rule="evenodd">
        <g>
            <g>
                <g>
                    <g>
                        <g transform="translate(-860 -2406) translate(0 2204) translate(860 154) translate(0 48)">
                            <g>
                                <path fill="#000" fill-rule="nonzero" d="M11.518 46.23c1.469 0 2.766.362 3.89 1.086 1.125.723 1.998 1.74 2.618 3.05.62 1.31.93 2.837.93 4.583 0 1.723-.31 3.234-.93 4.532-.62 1.298-1.493 2.303-2.617 3.015-1.125.712-2.422 1.068-3.891 1.068-1.4 0-2.6-.31-3.598-.93-.999-.62-1.75-1.516-2.256-2.688v8.96l-.007.145c-.02.183-.081.33-.182.44-.126.139-.304.207-.534.207-.482 0-.723-.264-.723-.792V47.057l.008-.132c.02-.17.08-.309.181-.42.127-.137.305-.206.534-.206.23 0 .408.069.534.207.126.138.19.321.19.551v2.723l.13-.282c.501-1.012 1.21-1.797 2.125-2.355.998-.608 2.197-.913 3.598-.913zm33.055 0c1.47 0 2.766.356 3.891 1.068 1.125.713 1.997 1.724 2.617 3.033.62 1.31.93 2.826.93 4.549 0 1.746-.31 3.274-.93 4.583-.62 1.31-1.492 2.32-2.617 3.033-1.125.712-2.422 1.068-3.89 1.068-1.47 0-2.767-.356-3.892-1.068-1.125-.712-1.997-1.723-2.617-3.033-.62-1.31-.93-2.837-.93-4.583 0-1.723.31-3.24.93-4.549.62-1.31 1.492-2.32 2.617-3.033 1.125-.712 2.422-1.068 3.891-1.068zm13.567-4.962c.206 0 .378.069.516.206.138.138.207.334.207.586v4.584h4.58l.093.007c.121.02.228.081.32.182.114.127.172.282.172.465 0 .161-.052.3-.155.414-.104.115-.247.172-.43.172h-4.58v9.684l.004.306c.038 1.403.34 2.415.908 3.037.609.666 1.555 1.057 2.841 1.171l.93.07.131.016c.417.073.626.297.626.673 0 .505-.333.723-.998.654l-.896-.069-.317-.026c-1.56-.155-2.717-.67-3.47-1.542-.804-.93-1.205-2.372-1.205-4.324v-9.65h-2.858l-.094-.007c-.121-.018-.228-.073-.32-.165-.114-.115-.172-.253-.172-.414 0-.183.058-.338.172-.465.115-.126.253-.19.414-.19h2.858V42.06l.005-.121c.02-.195.086-.35.201-.465.138-.137.31-.206.517-.206zm-26.445-2.413c.207 0 .38.075.517.224.138.15.206.34.206.569v23.055l-.008.133c-.022.17-.088.316-.198.435-.138.15-.31.224-.517.224-.23 0-.407-.069-.533-.206-.127-.138-.19-.334-.19-.586V39.648l.008-.145c.02-.184.08-.33.182-.44.126-.139.304-.208.533-.208zm-7.3 7.444c.23 0 .408.069.534.207.127.138.19.321.19.551v15.646l-.008.145c-.02.183-.08.33-.182.44-.126.138-.304.207-.533.207-.23 0-.408-.069-.534-.206-.126-.138-.19-.334-.19-.586V47.057l.008-.132c.02-.17.08-.309.182-.42.126-.137.304-.206.534-.206zm20.178 1.344c-1.836 0-3.277.638-4.321 1.913-1.045 1.275-1.567 3.05-1.567 5.324 0 2.343.51 4.141 1.532 5.393 1.022 1.252 2.462 1.878 4.322 1.878 1.905 0 3.368-.626 4.39-1.878 1.021-1.252 1.532-3.05 1.532-5.393 0-2.274-.522-4.05-1.566-5.324-1.045-1.275-2.485-1.913-4.322-1.913zm-33.055 0c-1.883 0-3.329.626-4.339 1.878-1.01 1.252-1.515 3.039-1.515 5.359s.505 4.112 1.515 5.376c1.01 1.264 2.445 1.895 4.304 1.895 1.86 0 3.306-.626 4.339-1.878 1.033-1.252 1.55-3.027 1.55-5.324 0-2.298-.517-4.09-1.55-5.376-1.033-1.287-2.468-1.93-4.304-1.93zm12.878-7.995c.367 0 .671.115.912.345.241.23.362.54.362.93 0 .368-.127.666-.38.896-.252.23-.55.345-.894.345-.345 0-.643-.115-.896-.345-.252-.23-.378-.528-.378-.896 0-.39.12-.7.361-.93.241-.23.545-.345.913-.345zM6.639 3.446c.528 0 .985.171 1.37.514.4.356.6.834.6 1.433l-.001 4.945h4.734c.669 0 1.22.509 1.285 1.16l.007.133c0 .669-.509 1.22-1.16 1.285l-.132.007H8.608V25.53l.002.374c.008 1.097.054 1.978.138 2.643.108.754.21 1.5.488 1.892.295.409.629.709 1 .819.326.11.765.171 1.316.185l.244.003h2.233l.142.011c.746.09 1.324.726 1.324 1.497 0 .74-.534 1.356-1.237 1.483l-.134.018-.072.004v.003h-3.094l-.342-.006c-1.916-.063-3.43-.658-4.544-1.785-1.127-1.127-1.716-3.002-1.765-5.624l-.003-.362V12.922l-3.012.001c-.669 0-1.22-.508-1.285-1.16L0 11.63c0-.67.509-1.22 1.16-1.286l.132-.007h3.101l.342-4.945c0-.628.185-1.113.556-1.455.37-.328.82-.492 1.348-.492zm22.186 6.892c.536 0 .955.193 1.256.58.319.385.478.836.478 1.35 0 .483-.142.9-.427 1.254-.285.338-.696.507-1.232.507-2.262 0-3.807.563-5.064 1.689-1.215 1.102-1.86 2.568-1.885 4.396v12.098c0 .692-.222 1.244-.666 1.656-.428.396-.935.594-1.522.594-.586 0-1.086-.19-1.498-.569-.396-.38-.602-.913-.617-1.598l-.001-19.732c0-.692.214-1.236.642-1.631.444-.396.959-.594 1.545-.594.571 0 1.063.198 1.475.594.41.38.624.896.64 1.549l.002.082v3.034c.419-1.496 1.257-2.742 2.514-3.739 1.273-1.013 2.583-1.52 4.36-1.52zm26.948 0c2.243 0 4.327.579 5.88 1.629 1.233.833 2.234 2.116 2.639 3.38.232.727.267.995.27 2.05 0 .656-.017 1.1-.053 1.304-.364 2.073-1.23 3.51-2.733 4.532-1.21.823-2.729 1.305-4.715 1.495-1 .095-2.83.086-4.014-.02-1.006-.09-2.24-.25-2.767-.357-.156-.031-.445-.084-.754-.138l-.312-.054c-.465-.08-.891-.148-.898-.141-.005.005-.077.465-.16 1.021-.13.888-.15 1.11-.152 1.818v.315c.002.454.021.588.093.865.274 1.07.88 1.786 1.98 2.339 1.08.544 2.214.78 3.926.816.758.016 1.147.005 1.62-.046 1.15-.124 1.675-.26 3.202-.832.38-.142.77-.272.863-.288.202-.034.578.037.797.15.396.205.729.75.726 1.19-.002.516-.173.828-.674 1.234-1.2.97-2.73 1.566-4.558 1.772-.651.074-2.14.085-2.858.021-2.024-.179-3.43-.53-4.713-1.181-1.002-.507-1.767-1.137-2.338-1.925-.14-.193-.26-.356-.265-.362-.005-.006-.098.106-.207.248-.48.63-1.214 1.308-1.932 1.782-1.036.686-2.523 1.208-4.028 1.416-.449.062-1.938.113-2.32.08-2.637-.231-4.652-1.04-6.118-2.457-1.491-1.442-2.131-3.32-1.878-5.517.29-2.528 1.47-4.313 3.54-5.354 1.596-.802 3.187-1.108 5.78-1.108 1.84-.001 3.384.152 5.737.569.582.103 1.086.187 1.12.187.049 0 .088-.188.195-.942.193-1.363.227-1.833.175-2.379-.061-.635-.141-.938-.378-1.43-.61-1.272-2.06-2.05-4.388-2.354-.666-.088-2.202-.1-2.869-.023-1.117.128-1.74.292-3.13.822-.814.31-.818.311-1.143.292-.557-.033-.938-.29-1.183-.798-.1-.21-.118-.296-.118-.578 0-.423.108-.647.486-1.006.845-.805 2.268-1.49 3.705-1.785.92-.188 1.372-.228 2.584-.226 1.253.003 2.055.074 3.17.285 1.853.35 3.26.968 4.32 1.897.316.276.79.819.994 1.135.062.097.126.176.142.176.016 0 .12-.116.229-.258 1.607-2.083 4.313-3.262 7.483-3.26zM81.196 0v.003l.072.003c.768.07 1.37.715 1.37 1.502 0 .818-.652 1.485-1.465 1.507h-2.234c-.667 0-1.186.063-1.558.189-.373.11-.706.41-1 .818-.28.393-.38 1.139-.49 1.893-.083.664-.13 1.545-.138 2.642l-.001.374v1.407h3.873c.713 0 1.292.579 1.292 1.293 0 .713-.579 1.292-1.292 1.292H75.75l.001 19.37c0 .6-.18 1.091-.54 1.473l-.126.123c-.428.382-.935.573-1.522.573-.586 0-1.086-.183-1.498-.549-.37-.343-.575-.815-.612-1.415l-.006-.205v-19.37h-3.442c-.714 0-1.293-.579-1.293-1.292 0-.714.579-1.293 1.293-1.293h3.441l.001-2.562c0-2.812.59-4.807 1.768-5.985C74.33.663 75.844.068 77.76.006L78.102 0h3.094zm5.782 10.338c.571 0 1.063.198 1.475.594.385.356.597.832.635 1.428l.007.203v19.65c0 .691-.222 1.243-.666 1.655-.428.396-.935.594-1.522.594s-1.086-.19-1.498-.569c-.371-.356-.575-.845-.612-1.468l-.006-.213V12.563c0-.692.214-1.236.642-1.631.444-.396.959-.594 1.545-.594zM95.587 0c.57 0 1.062.19 1.474.572.385.343.597.802.636 1.377l.006.196v18.838l10.82-9.768c.35-.297.723-.446 1.12-.446.51 0 .954.196 1.335.587.398.392.596.83.596 1.315 0 .384-.146.737-.438 1.06l-.134.138-8.651 7.631 9.462 9.815c.349.36.524.767.524 1.221 0 .501-.207.947-.62 1.339-.397.39-.858.587-1.382.587-.495 0-.926-.174-1.295-.52l-.135-.138-11.202-11.74v10.229c0 .667-.222 1.2-.666 1.596-.428.382-.935.573-1.522.573-.586 0-1.086-.183-1.498-.549-.37-.343-.575-.815-.612-1.415l-.006-.205V2.145c0-.667.214-1.192.642-1.573C94.485.191 95 0 95.587 0zM38.985 23.17c-1.602.093-2.256.236-3.218.707-.493.241-.833.503-1.102.848-.386.496-.62.988-.782 1.651-.118.483-.13 1.746-.02 2.153.185.686.404 1.074.897 1.588.676.704 1.567 1.173 2.672 1.408.565.12.548.12 1.494.105.686-.011.943-.03 1.224-.095 1.192-.27 2.254-.88 3.025-1.738.704-.782 1.28-1.953 1.598-3.244.179-.727.477-2.753.41-2.794-.025-.017-.183-.043-.349-.058-.166-.016-.64-.073-1.052-.128-2.45-.325-3.954-.45-4.797-.402zm14.947-9.716c-.873.164-1.61.463-2.261.916-1.202.838-2.032 2.1-2.494 3.795-.181.666-.23.922-.392 2.07l-.149 1.058.2.023c.604.069 1.965.239 2.756.344l.17.022.348.043c.346.042.673.078.839.091.639.052 1.728.053 2.458.008l.255-.019c.993-.09 1.603-.249 2.354-.612.623-.302.986-.61 1.33-1.132.504-.767.701-1.493.696-2.572-.004-.769-.067-1.089-.325-1.64-.575-1.234-1.928-2.117-3.701-2.419-.443-.075-1.63-.062-2.084.024zM86.965 0c.765 0 1.383.212 1.854.634.47.41.706.956.706 1.638 0 .668-.235 1.214-.706 1.637-.471.41-1.096.614-1.876.614-.78 0-1.406-.205-1.876-.614-.471-.423-.707-.969-.707-1.637 0-.669.236-1.215.707-1.638C85.552.212 86.185 0 86.965 0z" transform="translate(71.125)"/>
                            </g>
                        </g>
                        <g transform="translate(-860 -2406) translate(0 2204) translate(860 154) translate(0 48)">
                            <g>
                                <path fill="#DB7D11" fill-rule="nonzero" d="M2.455.519l.101-.003L52.616 0c1.979-.02 3.23 2.094 2.3 3.811l-.052.094-25.559 43.072c-.728 1.228-2.312 1.632-3.539.903-1.197-.712-1.61-2.24-.952-3.454l.05-.088L46.514 7.85c.486-.819.217-1.876-.6-2.362-.272-.16-.582-.244-.897-.241l-42.408.437C1.217 5.699.071 4.608.003 3.228L0 3.127C-.014 1.733 1.076.586 2.455.519zM10.628 14.7l.101-.003 16.64-.24c1.982-.028 3.242 2.087 2.313 3.808l-.053.094-8.565 14.477c-.727 1.228-2.311 1.635-3.538.907-1.198-.71-1.614-2.237-.957-3.452l.05-.089 5.436-9.187c.242-.41.107-.938-.302-1.18-.137-.081-.293-.123-.451-.12l-10.499.15c-1.392.02-2.542-1.066-2.616-2.445l-.003-.102c-.02-1.393 1.065-2.545 2.444-2.618z" transform="translate(.538 12.923)"/>
                            </g>
                        </g>
                    </g>
                </g>
            </g>
        </g>
    </g>
</svg>
