<?xml version="1.0" encoding="UTF-8"?>
<svg width="128px" height="128px" viewBox="0 0 128 128" version="1.1" xmlns="http://www.w3.org/2000/svg" xmlns:xlink="http://www.w3.org/1999/xlink">
    <title>TraefikPilot-icon-black</title>
    <style>
        path {
            fill: #000;
        }

        @media (prefers-color-scheme: dark) {
            path {
                fill: #fff;
            }
        }
    </style>
    <defs>
        <rect id="path-1" x="0" y="0" width="128" height="128"></rect>
    </defs>
    <g id="TraefikPilot-icon-black" stroke="none" stroke-width="1" fill="none" fill-rule="evenodd">
        <mask id="mask-2" fill="white">
            <use xlink:href="#path-1"></use>
        </mask>
        <g id="Rectangle"></g>
        <path d="M17.3622133,24.9627409 L17.5506449,24.9571703 L110.598272,24 C114.274613,23.9624636 116.60196,27.8883103 114.873202,31.0778377 L114.774715,31.2509727 L67.26944,111.243542 C65.9158146,113.522867 62.9707263,114.273295 60.6914011,112.91967 C58.4663455,111.598273 57.6982493,108.760296 58.9221563,106.505541 L59.0152733,106.341631 L99.2565894,38.5796293 C100.158997,37.0600734 99.6586991,35.0966844 98.1391432,34.1942771 C97.6350863,33.8949365 97.0584846,33.7398155 96.472275,33.7458455 L17.6493658,34.5566627 C15.0616541,34.5832747 12.9311741,32.5571596 12.8058298,29.9947086 L12.8,29.806277 C12.7736472,27.2185653 14.7997623,25.0880852 17.3622133,24.9627409 Z M32.5536145,51.302052 L32.7420218,51.2957123 L63.6716893,50.8513648 C67.3537496,50.7984669 69.6964792,54.7261669 67.9692383,57.9229642 L67.8708668,58.0965256 L51.9503899,84.9830404 C50.5996914,87.2641012 47.6555687,88.0183088 45.3745079,86.6676103 C43.1477581,85.3490713 42.3760197,82.5120821 43.5970315,80.2557584 L43.689938,80.0917283 L53.7931168,63.0290697 C54.2433418,62.2687114 53.9919291,61.2873398 53.2315708,60.8371148 C52.978036,60.6869912 52.6879703,60.6097928 52.3933535,60.6140307 L32.8799248,60.8947218 C30.2923433,60.931896 28.1536108,58.9144939 28.0178083,56.3525759 L28.0114686,56.1641686 C27.9742944,53.5765871 29.9916964,51.4378546 32.5536145,51.302052 Z" id="Shape" fill="none" fill-rule="nonzero" mask="url(#mask-2)"></path>
    </g>
</svg>