<svg xmlns="http://www.w3.org/2000/svg" xmlns:xlink="http://www.w3.org/1999/xlink" width="99" height="70" viewBox="0 0 99 70">
    <defs>
        <linearGradient id="0yxcx0p2ea" x1="50%" x2="50%" y1="0%" y2="100%">
            <stop offset="0%" stop-opacity=".053"/>
            <stop offset="100%" stop-opacity=".941"/>
        </linearGradient>
        <linearGradient id="s1zixx0i6d" x1=".702%" x2="98.733%" y1="50%" y2="50%">
            <stop offset="0%" stop-color="#FFF" stop-opacity=".639"/>
            <stop offset="100%" stop-color="#FFF"/>
        </linearGradient>
        <linearGradient id="vnsnn04zpc" x1="50%" x2="50%" y1=".257%" y2="100%">
            <stop offset="0%" stop-color="#FFF" stop-opacity="0"/>
            <stop offset="100%" stop-color="#FFF" stop-opacity=".4"/>
        </linearGradient>
        <linearGradient id="ku3poqj1vf" x1="1.358%" x2="100%" y1="50%" y2="50%">
            <stop offset="0%" stop-color="#FFF" stop-opacity=".7"/>
            <stop offset="100%" stop-color="#FFF" stop-opacity=".9"/>
        </linearGradient>
        <linearGradient id="dmp8iydone" x1="50%" x2="50%" y1=".257%" y2="100%">
            <stop offset="0%" stop-color="#FFF" stop-opacity="0"/>
            <stop offset="100%" stop-color="#FFF"/>
        </linearGradient>
        <linearGradient id="l82kzh55bn" x1="62.212%" x2="62.212%" y1="0%" y2="100%">
            <stop offset="0%" stop-opacity=".4"/>
            <stop offset="100%"/>
        </linearGradient>
        <linearGradient id="gnz87409bq" x1="12.875%" x2="86.803%" y1="36.505%" y2="60.838%">
            <stop offset="0%" stop-color="#CC22D8"/>
            <stop offset="100%" stop-color="#9D0FB0"/>
        </linearGradient>
        <filter id="74va5rrcxb" width="114.3%" height="124.8%" x="-7.1%" y="-12.4%" filterUnits="objectBoundingBox">
            <feGaussianBlur in="SourceGraphic" stdDeviation="2.045"/>
        </filter>
        <filter id="tzslaqt91h" width="105.8%" height="110%" x="-2.9%" y="-5%" filterUnits="objectBoundingBox">
            <feGaussianBlur in="SourceAlpha" result="shadowBlurInner1" stdDeviation=".5"/>
            <feOffset dy="4" in="shadowBlurInner1" result="shadowOffsetInner1"/>
            <feComposite in="shadowOffsetInner1" in2="SourceAlpha" k2="-1" k3="1" operator="arithmetic" result="shadowInnerInner1"/>
            <feColorMatrix in="shadowInnerInner1" values="0 0 0 0 0 0 0 0 0 0 0 0 0 0 0 0 0 0 0.5 0"/>
        </filter>
        <filter id="tzwdrep5nk">
            <feColorMatrix in="SourceGraphic" values="0 0 0 0 0.615686 0 0 0 0 0.058824 0 0 0 0 0.690196 0 0 0 1.000000 0"/>
        </filter>
        <filter id="6h88z08byo" width="120%" height="132.7%" x="-10%" y="-16.3%" filterUnits="objectBoundingBox">
            <feGaussianBlur in="SourceGraphic" stdDeviation="1.534"/>
        </filter>
        <radialGradient id="lurhvjzbgj" cx="48.18%" cy="52.179%" r="29.45%" fx="48.18%" fy="52.179%" gradientTransform="matrix(-.57363 .10715 -.04042 -.65 .78 .81)">
            <stop offset="0%" stop-color="#FFF"/>
            <stop offset="99.137%" stop-color="#FFF" stop-opacity="0"/>
            <stop offset="100%" stop-color="#CC7613" stop-opacity="0"/>
        </radialGradient>
        <radialGradient id="zujqlnhj4m" cx="50%" cy="56.122%" r="43.878%" fx="50%" fy="56.122%" gradientTransform="matrix(0 1 -1.04665 0 1.087 .061)">
            <stop offset="0%" stop-color="#FFF" stop-opacity=".622"/>
            <stop offset="100%" stop-color="#FFF" stop-opacity="0"/>
        </radialGradient>
        <radialGradient id="obug9kphzp" cx="50%" cy="40.204%" r="133.713%" fx="50%" fy="40.204%" gradientTransform="scale(.63156 1) rotate(28.904 .646 .968)">
            <stop offset="0%" stop-color="#891498"/>
            <stop offset="100%" stop-color="#2F0744"/>
        </radialGradient>
        <ellipse id="xzl0p37y5l" cx="48.175" cy="25.76" rx="48.175" ry="25.76"/>
        <path id="wqvrfe8m8g" d="M52.3 2.554c-5.354-3.087-13.465-3.423-18.102-.75L3.13 19.723c-4.637 2.674-4.054 7.351 1.3 10.439L34.1 47.27c5.354 3.088 13.465 3.424 18.101.75l31.07-17.917c4.636-2.674 4.054-7.351-1.3-10.439L52.3 2.555z"/>
    </defs>
    <g fill="none" fill-rule="evenodd">
        <g>
            <g>
                <g>
                    <path fill="url(#0yxcx0p2ea)" d="M57.35 15.31c-5.327-3.066-13.4-3.4-18.014-.745l-30.92 17.79C3.8 35.01 4.38 39.654 9.708 42.72l29.53 16.99c5.327 3.065 13.4 3.398 18.014.743l30.92-17.79c4.615-2.654 4.036-7.299-1.293-10.364l-29.53-16.99z" filter="url(#74va5rrcxb)" opacity=".3" transform="translate(-107 -205) translate(108 205) translate(.52 .755)"/>
                    <path fill="url(#s1zixx0i6d)" fill-opacity=".5" stroke="url(#vnsnn04zpc)" stroke-width=".589" d="M58.11 7.255c-5.948-3.43-14.96-3.803-20.112-.832L3.478 26.33c-5.152 2.971-4.505 8.168 1.444 11.599L37.889 56.94c5.949 3.43 14.96 3.804 20.113.833l34.52-19.908c5.152-2.97 4.505-8.168-1.444-11.599L58.111 7.255z" transform="translate(-107 -205) translate(108 205) translate(.52 .755)"/>
                    <path fill="url(#ku3poqj1vf)" stroke="url(#dmp8iydone)" stroke-width=".589" d="M58.11 2.838c-5.948-3.43-14.96-3.803-20.112-.833L3.478 21.913c-5.152 2.971-4.505 8.168 1.444 11.599l32.967 19.012c5.949 3.43 14.96 3.803 20.113.833l34.52-19.908c5.152-2.971 4.505-8.168-1.444-11.599L58.111 2.838z" opacity=".9" transform="translate(-107 -205) translate(108 205) translate(.52 .755)"/>
                    <g transform="translate(-107 -205) translate(108 205) translate(.52 .755) translate(4.8 2.768)">
                        <mask id="hayjgaod4i" fill="#fff">
                            <use xlink:href="#wqvrfe8m8g"/>
                        </mask>
                        <g>
                            <use fill="#10072A" xlink:href="#wqvrfe8m8g"/>
                            <use fill="#000" filter="url(#tzslaqt91h)" xlink:href="#wqvrfe8m8g"/>
                        </g>
                        <g fill="url(#lurhvjzbgj)" fill-rule="nonzero" mask="url(#hayjgaod4i)" opacity=".166">
                            <path d="M294.763.176c.409.21.368.363.249.431L164.449 75.97l10.142 5.843L305.447 6.28c.41.21.368.363.25.431L175.09 82.1l10.663 6.144 130.759-75.477c.41.21.368.363.25.432L186.02 88.667l.143.08c1.337.749 4.817 2.734 10.44 5.958l.13.074 130.845-75.525c.41.21.368.363.25.432l-130.596 75.38c2.862 1.64 6.248 3.585 10.16 5.832l130.87-75.54c.41.211.369.364.25.433l-130.62 75.395.29.166c21.244 12.206 57.437 33.044 108.58 62.514.099.057.143.173.116.279l-.026.061c-.041.073-36.473-20.868-109.293-62.822l-10.818 6.239c21.192 12.175 57.51 33.085 108.954 62.73.12.068.16.22.092.34-.042.072-36.502-20.885-109.38-62.872l-10.488 6.047c21.226 12.195 57.463 33.058 108.71 62.59.12.068.16.22.092.34-.042.072-36.42-20.838-109.136-62.731l-10.626 6.13c21.188 12.172 57.517 33.088 108.986 62.747.12.069.16.221.091.34-.042.073-36.512-20.89-109.411-62.89l-10.488 6.047c21.222 12.193 57.47 33.062 108.742 62.608.12.069.16.221.091.34-.041.073-36.43-20.844-109.167-62.75l-10.297 5.938c21.23 12.197 57.46 33.056 108.689 62.577.12.069.16.221.091.34-.042.073-36.413-20.833-109.113-62.718l-76.427 44.113c-.41-.21-.369-.363-.25-.432l76.179-43.968-10.141-5.843-76.473 44.138c-.409-.21-.368-.363-.249-.432l76.222-43.994c-3.48-2.004-7.034-4.053-10.664-6.145l-76.375 44.085c-.409-.21-.368-.363-.249-.432l76.2-43.985c-.014-.055-.01-.116.018-.17-1.164-.649-4.69-2.66-10.574-6.034l-76.46 44.134c-.41-.21-.369-.363-.25-.432l76.212-43.987c-2.856-1.637-6.242-3.581-10.16-5.832l-76.487 44.146c-.409-.21-.368-.363-.249-.432l76.233-44.003-10.676-6.136-76.374 44.084c-.409-.21-.368-.362-.249-.431l76.127-43.939C76.188 88.273 43.563 69.486.181 44.487c-.12-.069-.16-.221-.091-.34.04-.07 32.81 18.763 98.312 56.496l10.286-5.93C86.819 82.137 54.212 63.36 10.865 38.383c-.119-.07-.16-.222-.091-.341.04-.07 32.792 18.752 98.258 56.465l10.476-6.04c-21.867-12.575-54.393-31.305-97.577-56.19-.12-.069-.16-.221-.091-.34.04-.069 32.71 18.706 98.014 56.324l10.616-6.121c-21.869-12.576-54.487-31.36-97.855-56.35-.119-.068-.16-.22-.09-.34.039-.069 32.802 18.76 98.29 56.483l10.476-6.04c-21.867-12.574-54.404-31.31-97.61-56.207-.119-.07-.16-.222-.09-.34.039-.07 32.72 18.711 98.044 56.341l10.807-6.23C130.574 56.88 98.009 38.127 54.747 13.198c-.119-.069-.16-.221-.091-.34.04-.07 32.75 18.728 98.13 56.39l.028-.01c.126.064.209.123.26.176l10.26 5.91.616.356L294.763.176zM153.165 120.51l-10.315 5.95c2.867 1.643 6.254 3.587 10.16 5.831l10.296-5.938-10.141-5.843zm-11.163-6.432l-4.787 2.76-5.577 3.22c1.39.779 4.96 2.817 10.71 6.113l10.317-5.949-10.663-6.144zm21.984.186l-10.505 6.06c2.865 1.642 6.251 3.586 10.159 5.831l10.487-6.048-10.141-5.843zm-11.165-6.434l-7.633 4.406-2.923 1.685c1.345.752 4.916 2.79 10.713 6.114l10.507-6.06c-3.48-2.004-7.034-4.053-10.664-6.145zm22.126.107l-10.648 6.14c2.857 1.638 6.244 3.582 10.16 5.831l10.629-6.128-10.14-5.843zm-43.927-.396l-10.314 5.952 10.607 6.112.048.037 10.262-5.924c0-.038.008-.077.026-.112-1.169-.652-4.713-2.674-10.629-6.065zm32.763-6.037l-10.446 6.028-.15.087c0 .035-.009.07-.025.102 1.17.651 4.717 2.675 10.639 6.07l10.646-6.143-10.664-6.144zm21.985.187l-10.504 6.06c2.866 1.643 6.252 3.587 10.158 5.831l10.487-6.048-10.141-5.843zm-43.925-.394l-10.506 6.06 10.66 6.143H142l7.908-4.564 2.648-1.526c-1.336-.747-4.907-2.785-10.712-6.113zm-21.48.127l-10.3 5.937 10.142 5.843 10.317-5.949c-2.857-1.638-6.243-3.582-10.16-5.831zm54.24-6.167l-10.553 6.092c1.373.769 4.943 2.806 10.71 6.113l10.507-6.06-10.664-6.145zm22.316-.004l-10.838 6.25c2.859 1.64 6.246 3.583 10.16 5.832l10.82-6.238-10.142-5.844zm-44.116-.285l-10.646 6.142 10.663 6.145 5.063-2.923 5.493-3.171c-.007-.049 0-.1.023-.147-1.167-.65-4.7-2.666-10.596-6.046zm-43.618.03l-10.283 5.933 10.663 6.143 10.296-5.939L109.185 95zm21.997.179l-10.488 6.048 10.142 5.843 10.504-6.06c-2.865-1.643-6.251-3.587-10.158-5.831zm54.574-6.356l-10.823 6.247c-.004.02-.01.041-.02.06 1.171.654 4.73 2.684 10.67 6.09l10.836-6.253-10.663-6.144zm-65.749-.067l-10.475 6.04 10.663 6.143 10.489-6.046-10.677-6.137zm43.62-.03l-10.509 6.06 10.63 6.124.028.023 10.563-6.093c-1.307-.731-4.878-2.769-10.713-6.114zm-21.482.126l-10.63 6.129 10.141 5.843 10.649-6.14c-2.856-1.637-6.243-3.581-10.16-5.832zm-11.178-6.425l-10.614 6.123 10.664 6.144 10.626-6.13c-3.21-1.844-6.77-3.89-10.676-6.137zm43.81-.14l-10.839 6.252L174.6 94.68l10.888-6.283c-1.229-.684-4.799-2.722-10.712-6.111zm-21.814.318l-10.487 6.049 10.142 5.843 10.506-6.06c-2.865-1.642-6.252-3.586-10.16-5.832zm-11.173-6.422l-10.476 6.04 10.664 6.144 10.486-6.048-10.674-6.136zm22.327-.014l-10.82 6.239 10.142 5.843 10.836-6.25c-2.86-1.641-6.247-3.585-10.158-5.832zm-11.177-6.424l-10.805 6.232 10.664 6.144 10.818-6.24c-3.213-1.845-6.772-3.89-10.677-6.136z" transform="translate(-130.986 -77.515)"/>
                        </g>
                        <g filter="url(#tzwdrep5nk)" opacity=".85">
                            <g mask="url(#hayjgaod4i)">
                                <g transform="translate(-5.566 -5.345)">
                                    <use fill="url(#zujqlnhj4m)" xlink:href="#xzl0p37y5l"/>
                                </g>
                            </g>
                        </g>
                    </g>
                </g>
                <g>
                    <path fill="url(#l82kzh55bn)" d="M16.688 5.462l.066.036 5.64 3.179c.385.217.856.217 1.242 0l5.593-3.146c.913-.514 2.07-.19 2.584.723.502.892.206 2.016-.659 2.547l-.064.038-3.23 1.817c-.304.171-.412.557-.24.862.056.1.14.184.24.24l8.718 4.915c.386.217.857.217 1.243 0l5.39-3.038c.913-.515 2.071-.192 2.586.721.502.891.206 2.016-.657 2.548l-.065.037-3.033 1.71c-.304.172-.412.557-.24.862.057.1.14.184.24.24l3.05 1.72c.914.515 1.237 1.672.722 2.585-.502.892-1.618 1.22-2.52.757l-.065-.035-5.408-3.049c-.386-.217-.857-.217-1.243 0L27.764 26.7c-.304.171-.412.557-.24.862.056.1.14.183.24.24l3.642 2.053c.913.515 1.236 1.672.721 2.585-.502.892-1.617 1.22-2.52.757l-.065-.035-5.999-3.382c-.386-.218-.857-.218-1.243 0l-6.05 3.41c-.913.516-2.07.193-2.586-.72-.502-.892-.206-2.016.658-2.548l.064-.038 3.693-2.082c.304-.172.412-.557.24-.862-.057-.1-.14-.183-.24-.24l-8.736-4.925c-.386-.217-.857-.217-1.242 0L2.957 24.67c-.914.514-2.071.19-2.585-.724-.502-.891-.205-2.016.659-2.547l.064-.038 2.781-1.565c.305-.171.413-.557.241-.861-.056-.101-.14-.184-.24-.241L1.1 17.129c-.913-.515-1.236-1.673-.721-2.586.502-.891 1.617-1.22 2.52-.757l.065.036 5.14 2.897c.384.217.855.217 1.24 0l8.823-4.964c.305-.172.413-.557.241-.862-.056-.1-.14-.184-.24-.24l-3.279-1.849c-.913-.514-1.236-1.672-.72-2.585.502-.891 1.617-1.22 2.519-.757zm5.704 8.271l-8.822 4.964c-.305.172-.413.558-.241.862.056.1.14.184.24.24l8.731 4.923c.386.217.857.217 1.243 0l8.814-4.969c.304-.171.412-.557.24-.862-.057-.1-.14-.183-.24-.24l-8.723-4.917c-.386-.218-.856-.218-1.242 0z" filter="url(#6h88z08byo)" transform="translate(-107 -205) translate(108 205) translate(25.34 12.36)"/>
                    <path fill="url(#obug9kphzp)" fill-rule="nonzero" d="M15.857 1.87v.827c.282.005.565.073.83.21l.067.034 5.64 3.18c.385.217.856.217 1.242 0l5.593-3.147c.299-.168.624-.246.944-.244v-.596h1.917V4.71h-.034c-.027.61-.348 1.193-.902 1.534l-.064.038L27.86 8.1c-.304.171-.412.557-.24.861.056.101.14.184.24.241l8.718 4.915c.386.217.857.217 1.243 0l5.39-3.039c.247-.138.51-.216.775-.238v-.163h2.073v2.135h-.02c-.026.61-.346 1.195-.9 1.535l-.064.038-3.033 1.71c-.304.171-.412.557-.24.862.057.1.14.183.24.24l2.062 1.162h1.955v2.136c.012.34-.065.689-.245 1.007-.502.892-1.618 1.22-2.52.757l-.065-.035-5.408-3.049c-.386-.217-.857-.217-1.243 0l-8.814 4.969c-.304.171-.412.557-.24.861.056.101.14.184.24.24l2.677 1.51v-.418h1.918v2.39c.046.387-.026.792-.232 1.157-.502.891-1.617 1.22-2.52.757l-.065-.036-5.999-3.381c-.386-.218-.857-.218-1.243 0l-6.05 3.41c-.913.515-2.07.192-2.586-.72-.178-.317-.256-.663-.243-1h-.018v-2.577h1.917v.463l2.759-1.554c.304-.172.412-.558.24-.862-.057-.1-.14-.184-.24-.24l-8.736-4.925c-.386-.217-.857-.217-1.242 0l-5.144 2.894c-.914.514-2.071.19-2.585-.723-.159-.282-.238-.586-.244-.888V18.36h1.757l1.991-1.12c.305-.171.413-.557.241-.862-.056-.1-.14-.184-.24-.24L1.1 14.572c-.651-.367-1.002-1.06-.963-1.76h-.01v-2.135H2.2v.35c.238.022.475.088.698.203l.066.036 5.14 2.896c.384.218.855.218 1.24 0L18.168 9.2c.305-.172.413-.558.241-.862-.056-.1-.14-.184-.24-.24l-3.279-1.849c-.694-.391-1.047-1.155-.95-1.9V1.87h1.918zm6.535 9.307l-8.822 4.964c-.305.172-.413.557-.241.862.056.1.14.184.24.24l8.731 4.923c.386.217.857.217 1.243 0l8.814-4.969c.304-.172.412-.557.24-.862-.057-.1-.14-.184-.24-.24l-8.723-4.917c-.386-.218-.856-.218-1.242-.001z" transform="translate(-107 -205) translate(108 205) translate(25.34 12.36)"/>
                    <path fill="url(#gnz87409bq)" fill-rule="nonzero" d="M16.688.35l.066.035 5.64 3.18c.385.217.856.217 1.242 0L29.229.418c.913-.514 2.07-.19 2.584.723.502.892.206 2.016-.659 2.548l-.064.037-3.23 1.817c-.304.172-.412.558-.24.862.056.1.14.184.24.241l8.718 4.914c.386.218.857.218 1.243 0l5.39-3.038c.913-.515 2.071-.192 2.586.721.502.892.206 2.016-.657 2.548l-.065.038-3.033 1.71c-.304.171-.412.557-.24.861.057.101.14.184.24.24l3.05 1.72c.914.515 1.237 1.673.722 2.586-.502.891-1.618 1.22-2.52.757l-.065-.036-5.408-3.048c-.386-.218-.857-.218-1.243 0l-8.814 4.968c-.304.172-.412.558-.24.862.056.1.14.184.24.24l3.642 2.053c.913.515 1.236 1.673.721 2.586-.502.891-1.617 1.22-2.52.757l-.065-.036-5.999-3.382c-.386-.217-.857-.217-1.243 0l-6.05 3.411c-.913.515-2.07.192-2.586-.721-.502-.891-.206-2.016.658-2.548l.064-.037 3.693-2.082c.304-.172.412-.558.24-.862-.057-.1-.14-.184-.24-.24l-8.736-4.925c-.386-.217-.857-.218-1.242 0l-5.144 2.894c-.914.514-2.071.19-2.585-.723-.502-.892-.205-2.016.659-2.547l.064-.038 2.781-1.565c.305-.171.413-.557.241-.862-.056-.1-.14-.184-.24-.24L1.1 12.015c-.913-.515-1.236-1.672-.721-2.585.502-.892 1.617-1.22 2.52-.757l.065.035 5.14 2.897c.384.217.855.217 1.24 0l8.823-4.964c.305-.171.413-.557.241-.861-.056-.101-.14-.184-.24-.241l-3.279-1.848c-.913-.515-1.236-1.672-.72-2.585.502-.892 1.617-1.22 2.519-.757zm5.704 8.27l-8.822 4.965c-.305.171-.413.557-.241.862.056.1.14.184.24.24L22.3 19.61c.386.218.857.218 1.243 0l8.814-4.968c.304-.172.412-.558.24-.862-.057-.1-.14-.184-.24-.24L23.634 8.62c-.386-.217-.856-.217-1.242 0z" transform="translate(-107 -205) translate(108 205) translate(25.34 12.36)"/>
                </g>
            </g>
        </g>
    </g>
</svg>
