<svg xmlns="http://www.w3.org/2000/svg" xmlns:xlink="http://www.w3.org/1999/xlink" width="99" height="70" viewBox="0 0 99 70">
    <defs>
        <linearGradient id="62e5eq3mza" x1="50%" x2="50%" y1="0%" y2="100%">
            <stop offset="0%" stop-opacity=".053"/>
            <stop offset="100%" stop-opacity=".941"/>
        </linearGradient>
        <linearGradient id="lokhx5e7od" x1=".702%" x2="98.733%" y1="50%" y2="50%">
            <stop offset="0%" stop-color="#FFF" stop-opacity=".639"/>
            <stop offset="100%" stop-color="#FFF"/>
        </linearGradient>
        <linearGradient id="5q2h7vkjac" x1="50%" x2="50%" y1=".257%" y2="100%">
            <stop offset="0%" stop-color="#FFF" stop-opacity="0"/>
            <stop offset="100%" stop-color="#FFF" stop-opacity=".4"/>
        </linearGradient>
        <linearGradient id="awdoc4l7xf" x1="1.358%" x2="100%" y1="50%" y2="50%">
            <stop offset="0%" stop-color="#FFF" stop-opacity=".7"/>
            <stop offset="100%" stop-color="#FFF" stop-opacity=".9"/>
        </linearGradient>
        <linearGradient id="8gwst418xe" x1="50%" x2="50%" y1=".257%" y2="100%">
            <stop offset="0%" stop-color="#FFF" stop-opacity="0"/>
            <stop offset="100%" stop-color="#FFF"/>
        </linearGradient>
        <linearGradient id="81l32pqvyn" x1="62.212%" x2="62.212%" y1="0%" y2="100%">
            <stop offset="0%" stop-opacity=".4"/>
            <stop offset="100%"/>
        </linearGradient>
        <linearGradient id="pvkzvtkypq" x1="-24.51%" x2="87.453%" y1="8.023%" y2="67.209%">
            <stop offset="0%" stop-color="#0099F2"/>
            <stop offset="100%" stop-color="#0060E0"/>
        </linearGradient>
        <filter id="05zjnss12b" width="114.3%" height="124.8%" x="-7.1%" y="-12.4%" filterUnits="objectBoundingBox">
            <feGaussianBlur in="SourceGraphic" stdDeviation="2.045"/>
        </filter>
        <filter id="g00vfnm7mh" width="105.8%" height="110%" x="-2.9%" y="-5%" filterUnits="objectBoundingBox">
            <feGaussianBlur in="SourceAlpha" result="shadowBlurInner1" stdDeviation=".5"/>
            <feOffset dy="4" in="shadowBlurInner1" result="shadowOffsetInner1"/>
            <feComposite in="shadowOffsetInner1" in2="SourceAlpha" k2="-1" k3="1" operator="arithmetic" result="shadowInnerInner1"/>
            <feColorMatrix in="shadowInnerInner1" values="0 0 0 0 0 0 0 0 0 0 0 0 0 0 0 0 0 0 0.5 0"/>
        </filter>
        <filter id="f43xoah16k">
            <feColorMatrix in="SourceGraphic" values="0 0 0 0 0.000000 0 0 0 0 0.376471 0 0 0 0 0.878431 0 0 0 1.000000 0"/>
        </filter>
        <filter id="09xfkniapo" width="121.8%" height="137.2%" x="-10.9%" y="-18.6%" filterUnits="objectBoundingBox">
            <feGaussianBlur in="SourceGraphic" stdDeviation="1.534"/>
        </filter>
        <radialGradient id="43p71fszrj" cx="48.18%" cy="52.179%" r="29.45%" fx="48.18%" fy="52.179%" gradientTransform="matrix(-.57363 .10715 -.04042 -.65 .78 .81)">
            <stop offset="0%" stop-color="#FFF"/>
            <stop offset="99.137%" stop-color="#FFF" stop-opacity="0"/>
            <stop offset="100%" stop-color="#CC7613" stop-opacity="0"/>
        </radialGradient>
        <radialGradient id="gic4asbqhm" cx="50%" cy="56.122%" r="43.878%" fx="50%" fy="56.122%" gradientTransform="matrix(0 1 -1.04665 0 1.087 .061)">
            <stop offset="0%" stop-color="#FFF" stop-opacity=".622"/>
            <stop offset="100%" stop-color="#FFF" stop-opacity="0"/>
        </radialGradient>
        <radialGradient id="gmosdqbxup" cx="35.099%" cy="14.039%" r="146.017%" fx="35.099%" fy="14.039%" gradientTransform="scale(.5986 1) rotate(42.052 .469 .447)">
            <stop offset="0%" stop-color="#0063E1"/>
            <stop offset="100%" stop-color="#004191"/>
        </radialGradient>
        <ellipse id="ny68mv7c9l" cx="48.175" cy="25.76" rx="48.175" ry="25.76"/>
        <path id="0m816cezjg" d="M52.3 2.554c-5.354-3.087-13.465-3.423-18.102-.75L3.13 19.723c-4.637 2.674-4.054 7.351 1.3 10.439L34.1 47.27c5.354 3.088 13.465 3.424 18.101.75l31.07-17.917c4.636-2.674 4.054-7.351-1.3-10.439L52.3 2.555z"/>
    </defs>
    <g fill="none" fill-rule="evenodd">
        <g>
            <g>
                <g>
                    <path fill="url(#62e5eq3mza)" d="M57.35 15.31c-5.327-3.066-13.4-3.4-18.014-.745l-30.92 17.79C3.8 35.01 4.38 39.654 9.708 42.72l29.53 16.99c5.327 3.065 13.4 3.398 18.014.743l30.92-17.79c4.615-2.654 4.036-7.299-1.293-10.364l-29.53-16.99z" filter="url(#05zjnss12b)" opacity=".3" transform="translate(-107 -285) translate(108 285) translate(.52 .755)"/>
                    <path fill="url(#lokhx5e7od)" fill-opacity=".5" stroke="url(#5q2h7vkjac)" stroke-width=".589" d="M58.11 7.255c-5.948-3.43-14.96-3.803-20.112-.832L3.478 26.33c-5.152 2.971-4.505 8.168 1.444 11.599L37.889 56.94c5.949 3.43 14.96 3.804 20.113.833l34.52-19.908c5.152-2.97 4.505-8.168-1.444-11.599L58.111 7.255z" transform="translate(-107 -285) translate(108 285) translate(.52 .755)"/>
                    <path fill="url(#awdoc4l7xf)" stroke="url(#8gwst418xe)" stroke-width=".589" d="M58.11 2.838c-5.948-3.43-14.96-3.803-20.112-.833L3.478 21.913c-5.152 2.971-4.505 8.168 1.444 11.599l32.967 19.012c5.949 3.43 14.96 3.803 20.113.833l34.52-19.908c5.152-2.971 4.505-8.168-1.444-11.599L58.111 2.838z" opacity=".9" transform="translate(-107 -285) translate(108 285) translate(.52 .755)"/>
                    <g transform="translate(-107 -285) translate(108 285) translate(.52 .755) translate(4.8 2.768)">
                        <mask id="uospg8dv2i" fill="#fff">
                            <use xlink:href="#0m816cezjg"/>
                        </mask>
                        <g>
                            <use fill="#10072A" xlink:href="#0m816cezjg"/>
                            <use fill="#000" filter="url(#g00vfnm7mh)" xlink:href="#0m816cezjg"/>
                        </g>
                        <g fill="url(#43p71fszrj)" fill-rule="nonzero" mask="url(#uospg8dv2i)" opacity=".166">
                            <path d="M294.763.176c.409.21.368.363.249.431L164.449 75.97l10.142 5.843L305.447 6.28c.41.21.368.363.25.431L175.09 82.1l10.663 6.144 130.759-75.477c.41.21.368.363.25.432L186.02 88.667l.143.08c1.337.749 4.817 2.734 10.44 5.958l.13.074 130.845-75.525c.41.21.368.363.25.432l-130.596 75.38c2.862 1.64 6.248 3.585 10.16 5.832l130.87-75.54c.41.211.369.364.25.433l-130.62 75.395.29.166c21.244 12.206 57.437 33.044 108.58 62.514.099.057.143.173.116.279l-.026.061c-.041.073-36.473-20.868-109.293-62.822l-10.818 6.239c21.192 12.175 57.51 33.085 108.954 62.73.12.068.16.22.092.34-.042.072-36.502-20.885-109.38-62.872l-10.488 6.047c21.226 12.195 57.463 33.058 108.71 62.59.12.068.16.22.092.34-.042.072-36.42-20.838-109.136-62.731l-10.626 6.13c21.188 12.172 57.517 33.088 108.986 62.747.12.069.16.221.091.34-.042.073-36.512-20.89-109.411-62.89l-10.488 6.047c21.222 12.193 57.47 33.062 108.742 62.608.12.069.16.221.091.34-.041.073-36.43-20.844-109.167-62.75l-10.297 5.938c21.23 12.197 57.46 33.056 108.689 62.577.12.069.16.221.091.34-.042.073-36.413-20.833-109.113-62.718l-76.427 44.113c-.41-.21-.369-.363-.25-.432l76.179-43.968-10.141-5.843-76.473 44.138c-.409-.21-.368-.363-.249-.432l76.222-43.994c-3.48-2.004-7.034-4.053-10.664-6.145l-76.375 44.085c-.409-.21-.368-.363-.249-.432l76.2-43.985c-.014-.055-.01-.116.018-.17-1.164-.649-4.69-2.66-10.574-6.034l-76.46 44.134c-.41-.21-.369-.363-.25-.432l76.212-43.987c-2.856-1.637-6.242-3.581-10.16-5.832l-76.487 44.146c-.409-.21-.368-.363-.249-.432l76.233-44.003-10.676-6.136-76.374 44.084c-.409-.21-.368-.362-.249-.431l76.127-43.939C76.188 88.273 43.563 69.486.181 44.487c-.12-.069-.16-.221-.091-.34.04-.07 32.81 18.763 98.312 56.496l10.286-5.93C86.819 82.137 54.212 63.36 10.865 38.383c-.119-.07-.16-.222-.091-.341.04-.07 32.792 18.752 98.258 56.465l10.476-6.04c-21.867-12.575-54.393-31.305-97.577-56.19-.12-.069-.16-.221-.091-.34.04-.069 32.71 18.706 98.014 56.324l10.616-6.121c-21.869-12.576-54.487-31.36-97.855-56.35-.119-.068-.16-.22-.09-.34.039-.069 32.802 18.76 98.29 56.483l10.476-6.04c-21.867-12.574-54.404-31.31-97.61-56.207-.119-.07-.16-.222-.09-.34.039-.07 32.72 18.711 98.044 56.341l10.807-6.23C130.574 56.88 98.009 38.127 54.747 13.198c-.119-.069-.16-.221-.091-.34.04-.07 32.75 18.728 98.13 56.39l.028-.01c.126.064.209.123.26.176l10.26 5.91.616.356L294.763.176zM153.165 120.51l-10.315 5.95c2.867 1.643 6.254 3.587 10.16 5.831l10.296-5.938-10.141-5.843zm-11.163-6.432l-4.787 2.76-5.577 3.22c1.39.779 4.96 2.817 10.71 6.113l10.317-5.949-10.663-6.144zm21.984.186l-10.505 6.06c2.865 1.642 6.251 3.586 10.159 5.831l10.487-6.048-10.141-5.843zm-11.165-6.434l-7.633 4.406-2.923 1.685c1.345.752 4.916 2.79 10.713 6.114l10.507-6.06c-3.48-2.004-7.034-4.053-10.664-6.145zm22.126.107l-10.648 6.14c2.857 1.638 6.244 3.582 10.16 5.831l10.629-6.128-10.14-5.843zm-43.927-.396l-10.314 5.952 10.607 6.112.048.037 10.262-5.924c0-.038.008-.077.026-.112-1.169-.652-4.713-2.674-10.629-6.065zm32.763-6.037l-10.446 6.028-.15.087c0 .035-.009.07-.025.102 1.17.651 4.717 2.675 10.639 6.07l10.646-6.143-10.664-6.144zm21.985.187l-10.504 6.06c2.866 1.643 6.252 3.587 10.158 5.831l10.487-6.048-10.141-5.843zm-43.925-.394l-10.506 6.06 10.66 6.143H142l7.908-4.564 2.648-1.526c-1.336-.747-4.907-2.785-10.712-6.113zm-21.48.127l-10.3 5.937 10.142 5.843 10.317-5.949c-2.857-1.638-6.243-3.582-10.16-5.831zm54.24-6.167l-10.553 6.092c1.373.769 4.943 2.806 10.71 6.113l10.507-6.06-10.664-6.145zm22.316-.004l-10.838 6.25c2.859 1.64 6.246 3.583 10.16 5.832l10.82-6.238-10.142-5.844zm-44.116-.285l-10.646 6.142 10.663 6.145 5.063-2.923 5.493-3.171c-.007-.049 0-.1.023-.147-1.167-.65-4.7-2.666-10.596-6.046zm-43.618.03l-10.283 5.933 10.663 6.143 10.296-5.939L109.185 95zm21.997.179l-10.488 6.048 10.142 5.843 10.504-6.06c-2.865-1.643-6.251-3.587-10.158-5.831zm54.574-6.356l-10.823 6.247c-.004.02-.01.041-.02.06 1.171.654 4.73 2.684 10.67 6.09l10.836-6.253-10.663-6.144zm-65.749-.067l-10.475 6.04 10.663 6.143 10.489-6.046-10.677-6.137zm43.62-.03l-10.509 6.06 10.63 6.124.028.023 10.563-6.093c-1.307-.731-4.878-2.769-10.713-6.114zm-21.482.126l-10.63 6.129 10.141 5.843 10.649-6.14c-2.856-1.637-6.243-3.581-10.16-5.832zm-11.178-6.425l-10.614 6.123 10.664 6.144 10.626-6.13c-3.21-1.844-6.77-3.89-10.676-6.137zm43.81-.14l-10.839 6.252L174.6 94.68l10.888-6.283c-1.229-.684-4.799-2.722-10.712-6.111zm-21.814.318l-10.487 6.049 10.142 5.843 10.506-6.06c-2.865-1.642-6.252-3.586-10.16-5.832zm-11.173-6.422l-10.476 6.04 10.664 6.144 10.486-6.048-10.674-6.136zm22.327-.014l-10.82 6.239 10.142 5.843 10.836-6.25c-2.86-1.641-6.247-3.585-10.158-5.832zm-11.177-6.424l-10.805 6.232 10.664 6.144 10.818-6.24c-3.213-1.845-6.772-3.89-10.677-6.136z" transform="translate(-130.986 -77.515)"/>
                        </g>
                        <g filter="url(#f43xoah16k)" opacity=".734">
                            <g mask="url(#uospg8dv2i)">
                                <g transform="translate(-5.566 -5.345)">
                                    <use fill="url(#gic4asbqhm)" xlink:href="#ny68mv7c9l"/>
                                </g>
                            </g>
                        </g>
                    </g>
                </g>
                <g>
                    <path fill="url(#81l32pqvyn)" d="M5.323 5.641l.073-.01L25.991 3.14c1.298-.157 2.59.607 2.332 1.36l-.015.04-1.153 2.768c-.075.179.123.38.441.45.11.024.225.03.332.017l5.004-.611c1.28-.157 2.565.587 2.342 1.336l-.013.04-1.097 2.948c-.067.18.138.379.458.445.112.023.23.027.336.012l4.799-.688.068-.01c1.26-.147 2.54.58 2.33 1.328l-.012.041-4.249 12.082-.016.043c-.136.31-.531.543-1.061.622l-.073.01-20.49 2.47-.07.008c-1.276.122-2.518-.63-2.26-1.37l.015-.04 1.22-2.884c.076-.179-.12-.38-.438-.45-.112-.025-.23-.031-.337-.018l-5.08.636c-1.275.16-2.563-.576-2.353-1.325l.013-.041 1.03-2.914c.064-.18-.144-.38-.464-.443-.111-.022-.227-.026-.333-.01l-4.77.694c-1.282.187-2.616-.554-2.405-1.317l.013-.04L4.246 6.306c.117-.333.523-.582 1.077-.666zm27.617 9.137l-2.132 5.733c-.12.325-.519.568-1.06.652l-.075.01L20 22.386c-.376.047-.658.207-.75.425l-.859 2.03c-.075.178.121.38.439.45.11.025.226.03.333.018l14.813-1.786c.394-.048.686-.219.767-.45l3.08-8.76c.064-.18-.144-.379-.465-.442-.11-.023-.225-.026-.33-.011l-3.361.482c-.372.053-.645.217-.727.437zm-18.58-2.807l-3.099 8.766c-.063.18.144.379.465.443.105.02.214.025.315.013l14.877-1.863c.386-.049.672-.216.756-.442l3.251-8.74c.067-.18-.138-.38-.457-.446-.106-.021-.217-.026-.319-.014l-15.024 1.835c-.393.048-.683.218-.765.448zM7.4 7.931l-3.045 8.69c-.063.18.145.379.466.442.11.022.226.026.331.01l3.28-.477c.374-.055.647-.222.726-.444l2.052-5.804c.117-.33.52-.578 1.07-.662l.076-.01 9.977-1.219c.38-.046.665-.208.756-.428l.783-1.89c.074-.178-.124-.379-.442-.449-.11-.024-.224-.03-.33-.017L8.166 7.481c-.394.047-.685.218-.766.45z" filter="url(#09xfkniapo)" transform="translate(-107 -285) translate(108 285) translate(27.641 15.172)"/>
                    <path fill="url(#gmosdqbxup)" d="M28.37 1.183V2.91h-.015c-.004.052-.014.104-.032.156l-.015.04-1.153 2.769c-.075.178.123.38.441.45.11.023.225.03.332.016l5.004-.61.128-.014v-.512h2.25v1.728h-.012c-.003.045-.01.089-.024.133l-.013.041-1.097 2.947c-.067.18.138.38.458.445.112.023.23.027.336.012l4.799-.688.068-.009.103-.01V9.26h2.25v1.631c.006.083 0 .167-.023.251l-.012.04-4.249 12.083-.016.042c-.136.311-.531.543-1.061.622l-.073.01-20.49 2.47-.07.008c-1.084.104-2.144-.424-2.28-1.039h-.002l-.001-.017c-.015-.077-.015-.155 0-.233l.001-1.587.657-.001.6-1.417c.076-.178-.12-.38-.438-.45-.112-.025-.23-.03-.337-.017l-5.08.636c-1.093.137-2.196-.385-2.356-1.009H6.93v-.127-1.71h.558l.507-1.435c.064-.18-.144-.379-.464-.443-.111-.022-.227-.025-.333-.01l-4.77.695c-1.125.164-2.29-.387-2.416-1.04H0v-1.837h.567l3.68-10.502c.116-.332.522-.582 1.076-.665l.073-.01 20.595-2.492.129-.013v-.512h2.25zm8.658 11.244l-3.361.482c-.372.053-.645.218-.727.438l-2.132 5.732c-.12.325-.519.569-1.06.653l-.075.01L20 20.953c-.376.048-.658.207-.75.425l-.859 2.03c-.075.179.121.38.439.45.11.025.226.031.333.019l14.813-1.787c.394-.047.686-.218.767-.45l3.08-8.76c.064-.18-.144-.378-.465-.442-.11-.022-.225-.026-.33-.01zm-6.879-4.17L15.125 10.09c-.393.048-.683.219-.765.449l-3.099 8.766c-.063.18.144.378.465.442.105.021.214.026.315.013l14.877-1.863c.386-.048.672-.215.756-.442l3.251-8.74c.067-.18-.138-.38-.457-.445-.106-.022-.217-.027-.319-.014zM23.1 4.242L8.167 6.049c-.394.048-.685.219-.766.45l-3.045 8.69c-.063.181.145.38.466.443.11.022.226.025.331.01l3.28-.478c.374-.054.647-.221.726-.443l2.052-5.804c.117-.33.52-.579 1.07-.663l.076-.01 9.977-1.218c.38-.047.665-.208.756-.429l.783-1.889c.074-.178-.124-.38-.442-.45-.11-.023-.224-.029-.33-.016z" transform="translate(-107 -285) translate(108 285) translate(27.641 15.172)"/>
                    <path fill="url(#pvkzvtkypq)" d="M5.323 2.523l.073-.01L25.991.021c1.298-.157 2.59.606 2.332 1.36l-.015.04-1.153 2.768c-.075.178.123.38.441.45.11.023.225.03.332.016l5.004-.61c1.28-.157 2.565.586 2.342 1.335l-.013.041-1.097 2.947c-.067.18.138.38.458.445.112.023.23.027.336.012l4.799-.688.068-.009c1.26-.148 2.54.58 2.33 1.328l-.012.04-4.249 12.082-.016.043c-.136.311-.531.543-1.061.622l-.073.01-20.49 2.47-.07.008c-1.276.122-2.518-.63-2.26-1.37l.015-.04 1.22-2.884c.076-.178-.12-.38-.438-.45-.112-.025-.23-.03-.337-.017l-5.08.636c-1.275.16-2.563-.576-2.353-1.326l.013-.04 1.03-2.915c.064-.18-.144-.379-.464-.443-.111-.022-.227-.026-.333-.01l-4.77.695c-1.282.186-2.616-.555-2.405-1.317l.013-.041 4.211-12.02c.117-.333.523-.583 1.077-.666zM32.94 11.66l-2.132 5.732c-.12.325-.519.569-1.06.653l-.075.01L20 19.266c-.376.047-.658.207-.75.425l-.859 2.03c-.075.179.121.38.439.45.11.025.226.031.333.018l14.813-1.786c.394-.047.686-.218.767-.45l3.08-8.76c.064-.18-.144-.378-.465-.442-.11-.022-.225-.026-.33-.01l-3.361.48c-.372.054-.645.219-.727.439zM14.36 8.853l-3.099 8.765c-.063.181.144.38.465.443.105.021.214.026.315.013l14.877-1.863c.386-.048.672-.216.756-.442l3.251-8.74c.067-.18-.138-.38-.457-.445-.106-.022-.217-.027-.319-.015L15.125 8.404c-.393.048-.683.218-.765.449zM7.4 4.813l-3.045 8.69c-.063.18.145.378.466.442.11.022.226.025.331.01l3.28-.478c.374-.054.647-.221.726-.443L11.21 7.23c.117-.33.52-.579 1.07-.663l.076-.01 9.977-1.218c.38-.047.665-.208.756-.429l.783-1.89c.074-.178-.124-.379-.442-.448-.11-.024-.224-.03-.33-.017L8.166 4.362c-.394.048-.685.219-.766.45z" transform="translate(-107 -285) translate(108 285) translate(27.641 15.172)"/>
                </g>
            </g>
        </g>
    </g>
</svg>
