<svg xmlns="http://www.w3.org/2000/svg" width="36" height="36" viewBox="0 0 36 36">
    <g fill="none" fill-rule="nonzero">
        <path fill="#1E54D5" d="M18.45 18.544l-7.5-2.494a2.643 2.643 0 0 0-1.65 0l-7.5 2.499A2.622 2.622 0 0 0 0 21.036v9.838a2.62 2.62 0 0 0 1.8 2.49l7.5 2.501a2.612 2.612 0 0 0 1.65 0l7.5-2.499a2.624 2.624 0 0 0 1.8-2.491v-9.839a2.7 2.7 0 0 0-1.8-2.492zm-8.445-.364a.392.392 0 0 1 .238-.002L14.51 19.6a.375.375 0 0 1 0 .711c-1.519.515-4.2 1.425-4.8 1.633a.37.37 0 0 1-.241 0l-4.316-1.439a.375.375 0 0 1 0-.712l4.853-1.613zm7.739 13.05l-6.376 2.125a.375.375 0 0 1-.493-.355v-8.84c0-.16.103-.304.257-.355l6.374-2.125a.377.377 0 0 1 .494.357v8.838a.375.375 0 0 1-.256.355z"/>
        <path fill="#618FFE" d="M28.375 14.91A2.37 2.37 0 0 0 30 12.657V4.46a2.44 2.44 0 0 0-1.625-2.25L22.123.12a2.4 2.4 0 0 0-1.5 0l-6.249 2.087A2.369 2.369 0 0 0 12.75 4.46v8.197c0 1.021.655 1.928 1.624 2.25l6.251 2.085a2.4 2.4 0 0 0 1.5 0l6.25-2.082zm-5.758-.473a.375.375 0 0 1-.492-.355V7.263c0-.161.103-.305.256-.356l4.863-1.62a.37.37 0 0 1 .49.36l-.071 6.861a.372.372 0 0 1-.258.352l-4.788 1.578zm-1.2-12.181l2.85.95a.375.375 0 0 1 0 .71c-1.134.386-2.837.968-3.3 1.13a.375.375 0 0 1-.243 0l-2.797-.933a.375.375 0 0 1 0-.711l3.49-1.146zM34.547 19.026l-4.997-1.668a2.136 2.136 0 0 0-1.341 0l-5.001 1.668a2.123 2.123 0 0 0-1.452 2.016V27.6a2.121 2.121 0 0 0 1.453 2.016l4.991 1.668c.436.145.907.145 1.343 0l4.999-1.665A2.124 2.124 0 0 0 36 27.6v-6.558a2.186 2.186 0 0 0-1.453-2.016zm-5.712.474l1.432.477a.375.375 0 0 1 0 .711c-.684.236-1.5.519-1.808.629a.369.369 0 0 1-.244 0l-1.337-.45a.375.375 0 0 1 0-.712l1.956-.655zm1.285 9.249a.375.375 0 0 1-.495-.355v-5.136l3.65-1.218a.377.377 0 0 1 .493.35l.063 4.82a.372.372 0 0 1-.255.36l-3.456 1.179z"/>
    </g>
</svg>
