<?xml version="1.0" encoding="UTF-8"?>
<svg width="416px" height="130px" viewBox="0 0 416 130" version="1.1" xmlns="http://www.w3.org/2000/svg" xmlns:xlink="http://www.w3.org/1999/xlink">
    <title>TraefikEnterprise-horizontal-logo-color</title>
    <g id="TraefikEnterprise-horizontal-logo-color" stroke="none" stroke-width="1" fill="none" fill-rule="evenodd">
        <g id="Group-5" fill-rule="nonzero">
            <g id="Group-Copy" transform="translate(0.000000, 4.800000)" fill="#0060E0">
                <path d="M58.0444324,0.528955364 L58.230387,0.629577603 L109.576463,29.888498 C112.813151,31.7328841 112.792092,36.3754668 109.607921,38.2115501 L109.434315,38.307195 L97.2981641,44.6894359 C96.516063,45.1007326 96.2154665,46.0681727 96.6267631,46.8502739 C96.7693278,47.1213678 96.98671,47.345844 97.2530875,47.4970379 L109.747927,54.5890157 C112.947232,56.4050038 112.983983,60.9722959 109.882591,62.8587368 L109.710312,62.9589422 L97.0607978,69.9883193 C96.2883923,70.4175476 96.0101922,71.3916642 96.4394205,72.1640697 C96.5905781,72.4360811 96.8177772,72.6581094 97.0931958,72.8029658 L109.434315,79.2937762 L109.607921,79.3894211 C112.735232,81.1927172 112.81139,85.7031756 109.746741,87.6110219 L109.576463,87.7124732 L58.230387,116.971394 L58.0444324,117.072016 C56.6687193,117.777806 55.0358045,117.777261 53.6605631,117.070552 L53.4746757,116.969805 L2.42075179,87.8321728 L2.25028047,87.7304465 C-0.817679508,85.8174865 -0.732130666,81.2981313 2.40602802,79.5026497 L2.58022708,79.4074477 L15.26082,72.7933649 C16.0443032,72.3847071 16.3481593,71.4182859 15.9395015,70.6348026 C15.7958093,70.3593142 15.575013,70.1316243 15.3040711,69.979533 L2.56430699,62.828154 C-0.634608534,61.0324665 -0.70399205,56.4820686 2.37079336,54.5712789 L2.5416272,54.4697042 L14.9381495,47.4218805 C15.706334,46.9851428 15.9750247,46.0083604 15.538287,45.2401759 C15.3861804,44.9726332 15.1601408,44.7546356 14.8872658,44.6123164 L2.58022708,38.1935235 C-0.727977317,36.4680417 -0.873460598,31.8182659 2.25028047,29.8705248 L2.42075179,29.7687984 L53.4746757,0.631165874 C54.8868263,-0.17478049 56.6061869,-0.208916155 58.0444324,0.528955364 Z M82.9353326,77.8399483 L58.3318558,91.5148649 C56.9387587,92.2891422 55.2569039,92.3193791 53.8417039,91.6067498 L53.6504271,91.5049687 L29.3905061,77.8863529 C28.4480996,77.357321 27.3023318,77.3397176 26.344118,77.8395488 L17.4145441,82.4974646 C16.6310727,82.9061452 16.3272448,83.8725753 16.7359254,84.6560467 C16.8778297,84.9280879 17.0949623,85.1535902 17.3614445,85.3056772 L54.2710785,106.37079 C55.2534368,106.931442 56.4587947,106.931848 57.4415306,106.371858 L94.6706925,85.1576237 C95.4384491,84.7201342 95.7061835,83.7430892 95.268694,82.9753326 C95.1175285,82.7100503 94.8936139,82.4935597 94.6233872,82.3514216 L85.9796177,77.8048349 C85.0239293,77.3021468 83.8791721,77.3153507 82.9353326,77.8399483 Z M54.4221061,36.0183844 L17.134245,57.2162335 C16.3660472,57.6529478 16.0973267,58.629722 16.534041,59.3979198 C16.6778792,59.6509369 16.8880069,59.8599281 17.1418004,60.002392 L54.4517976,80.9458978 C55.4204372,81.4896317 56.6017614,81.4921356 57.5726973,80.952513 L95.0869632,60.1029911 C95.859345,59.67372 96.1374911,58.6995879 95.70822,57.9272062 C95.5655439,57.6704909 95.3549602,57.4579998 95.0995419,57.3130147 L57.5832738,36.0173637 C56.6029261,35.4608813 55.4020941,35.461269 54.4221061,36.0183844 Z M54.2702859,11.2301618 L17.3615344,32.2951811 C16.5940765,32.7331942 16.3270086,33.7104216 16.7650217,34.4778796 C16.9171201,34.7443765 17.1426419,34.9615169 17.4147054,35.1034182 L25.8782236,39.5177729 C26.8418626,40.0203823 27.9947355,39.9995262 28.9395649,39.4623915 L53.6277473,25.4271812 C55.0338019,24.6278374 56.7429448,24.592534 58.1758421,25.3214641 L58.3694705,25.4256007 L83.2810487,39.5663466 C84.230044,40.1050319 85.3881267,40.1229906 86.3533688,39.6139899 L94.6279819,35.2505417 C95.409618,34.8383619 95.7091215,33.8705829 95.2969416,33.0889467 C95.1547844,32.8193672 94.9385913,32.5959956 94.6737975,32.4451115 L57.4407382,11.2290672 C56.4579977,10.6690846 55.2526396,10.6695007 54.2702859,11.2301618 Z" id="Shape"></path>
            </g>
            <path d="M303.232,85.856 C305.962667,85.856 308.373333,86.528 310.464,87.872 C312.554667,89.216 314.176,91.104 315.328,93.536 C316.48,95.968 317.056,98.8053333 317.056,102.048 C317.056,105.248 316.48,108.053333 315.328,110.464 C314.176,112.874667 312.554667,114.741333 310.464,116.064 C308.373333,117.386667 305.962667,118.048 303.232,118.048 C300.629333,118.048 298.4,117.472 296.544,116.32 C294.688,115.168 293.290667,113.504 292.352,111.328 L292.352,111.328 L292.352,127.968 L292.3465,128.139 C292.320833,128.526333 292.205333,128.832 292,129.056 C291.765333,129.312 291.434667,129.44 291.008,129.44 C290.112,129.44 289.664,128.949333 289.664,127.968 L289.664,127.968 L289.664,87.392 L289.671184,87.2143673 C289.699918,86.869551 289.814857,86.5874286 290.016,86.368 C290.250667,86.112 290.581333,85.984 291.008,85.984 C291.434667,85.984 291.765333,86.112 292,86.368 C292.234667,86.624 292.352,86.9653333 292.352,87.392 L292.352,87.392 L292.352,92.448 L292.522408,92.0767336 C293.456646,90.1244014 294.797176,88.6161569 296.544,87.552 C298.4,86.4213333 300.629333,85.856 303.232,85.856 Z M402.944,85.856 C406.869333,85.856 409.962667,87.136 412.224,89.696 C414.485333,92.256 415.616,95.7546667 415.616,100.192 C415.616,100.96 415.466667,101.514667 415.168,101.856 C414.869333,102.197333 414.336,102.368 413.568,102.368 L413.568,102.368 L391.552,102.368 L391.560449,102.812327 C391.671388,106.778204 392.724571,109.851429 394.72,112.032 C396.789333,114.293333 399.701333,115.424 403.456,115.424 C405.504,115.424 407.2,115.146667 408.544,114.592 C409.888,114.037333 411.2,113.312 412.48,112.416 C413.376,111.818667 413.952,111.52 414.208,111.52 C414.506667,111.52 414.762667,111.637333 414.976,111.872 C415.189333,112.106667 415.296,112.373333 415.296,112.672 C415.296,113.098667 415.136,113.514667 414.816,113.92 C414.496,114.325333 413.930667,114.784 413.12,115.296 C410.048,117.130667 406.869333,118.048 403.584,118.048 C398.933333,118.048 395.274667,116.618667 392.608,113.76 C389.941333,110.901333 388.608,106.976 388.608,101.984 C388.608,98.784 389.205333,95.968 390.4,93.536 C391.594667,91.104 393.28,89.216 395.456,87.872 C397.632,86.528 400.128,85.856 402.944,85.856 Z M370.56,85.856 C372.138667,85.856 373.653333,86.0693333 375.104,86.496 C376.554667,86.9226667 377.834667,87.52 378.944,88.288 C379.754667,88.8853333 380.341333,89.408 380.704,89.856 C381.066667,90.304 381.248,90.7626667 381.248,91.232 C381.248,91.5306667 381.141333,91.7973333 380.928,92.032 C380.714667,92.2666667 380.458667,92.384 380.16,92.384 C379.818667,92.384 379.264,92.064 378.496,91.424 C377.386667,90.5706667 376.224,89.8666667 375.008,89.312 C373.792,88.7573333 372.266667,88.48 370.432,88.48 C368.042667,88.48 366.112,89.0453333 364.64,90.176 C363.168,91.3066667 362.432,92.7893333 362.432,94.624 C362.432,95.7333333 362.666667,96.64 363.136,97.344 C363.605333,98.048 364.405333,98.656 365.536,99.168 C366.666667,99.68 368.277333,100.170667 370.368,100.64 C373.312,101.365333 375.573333,102.101333 377.152,102.848 C378.730667,103.594667 379.850667,104.490667 380.512,105.536 C381.173333,106.581333 381.504,107.914667 381.504,109.536 C381.504,112.096 380.448,114.154667 378.336,115.712 C376.224,117.269333 373.418667,118.048 369.92,118.048 C368.256,118.048 366.592,117.802667 364.928,117.312 C363.264,116.821333 361.770667,116.149333 360.448,115.296 C359.594667,114.741333 359.018667,114.282667 358.72,113.92 C358.421333,113.557333 358.272,113.141333 358.272,112.672 C358.272,112.373333 358.378667,112.106667 358.592,111.872 C358.805333,111.637333 359.061333,111.52 359.36,111.52 C359.573333,111.52 359.861333,111.637333 360.224,111.872 C360.586667,112.106667 360.832,112.266667 360.96,112.352 C362.197333,113.248 363.488,113.984 364.832,114.56 C366.176,115.136 367.872,115.424 369.92,115.424 C372.693333,115.424 374.826667,114.912 376.32,113.888 C377.813333,112.864 378.56,111.413333 378.56,109.536 C378.56,108.426667 378.293333,107.509333 377.76,106.784 C377.226667,106.058667 376.352,105.429333 375.136,104.896 C373.92,104.362667 372.181333,103.84 369.92,103.328 C366.165333,102.474667 363.477333,101.386667 361.856,100.064 C360.234667,98.7413333 359.424,96.992 359.424,94.816 C359.424,92.1706667 360.458667,90.016 362.528,88.352 C364.597333,86.688 367.274667,85.856 370.56,85.856 Z M247.488,85.856 C251.413333,85.856 254.506667,87.136 256.768,89.696 C259.029333,92.256 260.16,95.7546667 260.16,100.192 C260.16,100.96 260.010667,101.514667 259.712,101.856 C259.413333,102.197333 258.88,102.368 258.112,102.368 L258.112,102.368 L236.096,102.368 L236.104449,102.812327 C236.215388,106.778204 237.268571,109.851429 239.264,112.032 C241.333333,114.293333 244.245333,115.424 248,115.424 C250.048,115.424 251.744,115.146667 253.088,114.592 C254.432,114.037333 255.744,113.312 257.024,112.416 C257.92,111.818667 258.496,111.52 258.752,111.52 C259.050667,111.52 259.306667,111.637333 259.52,111.872 C259.733333,112.106667 259.84,112.373333 259.84,112.672 C259.84,113.098667 259.68,113.514667 259.36,113.92 C259.04,114.325333 258.474667,114.784 257.664,115.296 C254.592,117.130667 251.413333,118.048 248.128,118.048 C243.477333,118.048 239.818667,116.618667 237.152,113.76 C234.485333,110.901333 233.152,106.976 233.152,101.984 C233.152,98.784 233.749333,95.968 234.944,93.536 C236.138667,91.104 237.824,89.216 240,87.872 C242.176,86.528 244.672,85.856 247.488,85.856 Z M158.464,85.856 C162.389333,85.856 165.482667,87.136 167.744,89.696 C170.005333,92.256 171.136,95.7546667 171.136,100.192 C171.136,100.96 170.986667,101.514667 170.688,101.856 C170.389333,102.197333 169.856,102.368 169.088,102.368 L169.088,102.368 L147.072,102.368 L147.080449,102.812327 C147.191388,106.778204 148.244571,109.851429 150.24,112.032 C152.309333,114.293333 155.221333,115.424 158.976,115.424 C161.024,115.424 162.72,115.146667 164.064,114.592 C165.408,114.037333 166.72,113.312 168,112.416 C168.896,111.818667 169.472,111.52 169.728,111.52 C170.026667,111.52 170.282667,111.637333 170.496,111.872 C170.709333,112.106667 170.816,112.373333 170.816,112.672 C170.816,113.098667 170.656,113.514667 170.336,113.92 C170.016,114.325333 169.450667,114.784 168.64,115.296 C165.568,117.130667 162.389333,118.048 159.104,118.048 C154.453333,118.048 150.794667,116.618667 148.128,113.76 C145.461333,110.901333 144.128,106.976 144.128,101.984 C144.128,98.784 144.725333,95.968 145.92,93.536 C147.114667,91.104 148.8,89.216 150.976,87.872 C153.152,86.528 155.648,85.856 158.464,85.856 Z M217.792,76.64 C218.176,76.64 218.496,76.768 218.752,77.024 C219.008,77.28 219.136,77.6426667 219.136,78.112 L219.136,78.112 L219.136,86.624 L227.648,86.624 L227.773388,86.6311837 C228.018939,86.6599184 228.233143,86.7748571 228.416,86.976 C228.629333,87.2106667 228.736,87.4986667 228.736,87.84 C228.736,88.1386667 228.64,88.3946667 228.448,88.608 C228.256,88.8213333 227.989333,88.928 227.648,88.928 L227.648,88.928 L219.136,88.928 L219.136,106.912 L219.139206,107.285716 C219.186228,109.991703 219.750493,111.936464 220.832,113.12 C221.962667,114.357333 223.722667,115.082667 226.112,115.296 L226.112,115.296 L227.84,115.424 L228.0105,115.444 C228.8355,115.564 229.248,115.984 229.248,116.704 C229.248,117.642667 228.629333,118.048 227.392,117.92 L227.392,117.92 L225.728,117.792 L225.348096,117.762765 C222.341632,117.499802 220.1216,116.53888 218.688,114.88 C217.194667,113.152 216.448,110.474667 216.448,106.848 L216.448,106.848 L216.448,88.928 L211.136,88.928 L211.010612,88.9214694 C210.765061,88.8953469 210.550857,88.7908571 210.368,88.608 C210.154667,88.3946667 210.048,88.1386667 210.048,87.84 C210.048,87.4986667 210.154667,87.2106667 210.368,86.976 C210.581333,86.7413333 210.837333,86.624 211.136,86.624 L211.136,86.624 L216.448,86.624 L216.448,78.112 L216.454,77.941 C216.482,77.5536667 216.608,77.248 216.832,77.024 C217.088,76.768 217.408,76.64 217.792,76.64 Z M348.032,85.984 C348.458667,85.984 348.789333,86.112 349.024,86.368 C349.258667,86.624 349.376,86.9653333 349.376,87.392 L349.376,87.392 L349.376,116.448 L349.3705,116.619 C349.344833,117.006333 349.229333,117.312 349.024,117.536 C348.789333,117.792 348.458667,117.92 348.032,117.92 C347.605333,117.92 347.274667,117.792 347.04,117.536 C346.805333,117.28 346.688,116.917333 346.688,116.448 L346.688,116.448 L346.688,87.392 L346.695184,87.2143673 C346.723918,86.869551 346.838857,86.5874286 347.04,86.368 C347.274667,86.112 347.605333,85.984 348.032,85.984 Z M339.84,85.984 L340.0245,85.9885 C340.4375,86.0095 340.728,86.104 340.896,86.272 C341.088,86.464 341.184,86.752 341.184,87.136 C341.184,87.8613333 340.736,88.288 339.84,88.416 L339.84,88.416 L337.92,88.608 L337.549926,88.647936 C334.618829,89.000192 332.39552,90.13888 330.88,92.064 C329.301333,94.0693333 328.512,96.3733333 328.512,98.976 L328.512,98.976 L328.512,116.448 L328.5065,116.619 C328.480833,117.006333 328.365333,117.312 328.16,117.536 C327.925333,117.792 327.594667,117.92 327.168,117.92 C326.741333,117.92 326.410667,117.792 326.176,117.536 C325.941333,117.28 325.824,116.917333 325.824,116.448 L325.824,116.448 L325.824,87.456 L325.828651,87.287917 C325.878256,86.418639 326.324706,85.984 327.168,85.984 C327.552,85.984 327.872,86.112 328.128,86.368 C328.384,86.624 328.512,86.9866667 328.512,87.456 L328.512,87.456 L328.512,92.064 L328.668346,91.7620741 C330.532708,88.2845432 333.808593,86.3798519 338.496,86.048 L338.496,86.048 L339.392,85.984 L339.84,85.984 Z M282.816,85.984 L283.0005,85.9885 C283.4135,86.0095 283.704,86.104 283.872,86.272 C284.064,86.464 284.16,86.752 284.16,87.136 C284.16,87.8613333 283.712,88.288 282.816,88.416 L282.816,88.416 L280.896,88.608 L280.525926,88.647936 C277.594829,89.000192 275.37152,90.13888 273.856,92.064 C272.277333,94.0693333 271.488,96.3733333 271.488,98.976 L271.488,98.976 L271.488,116.448 L271.4825,116.619 C271.456833,117.006333 271.341333,117.312 271.136,117.536 C270.901333,117.792 270.570667,117.92 270.144,117.92 C269.717333,117.92 269.386667,117.792 269.152,117.536 C268.917333,117.28 268.8,116.917333 268.8,116.448 L268.8,116.448 L268.8,87.456 L268.804651,87.287917 C268.854256,86.418639 269.300706,85.984 270.144,85.984 C270.528,85.984 270.848,86.112 271.104,86.368 C271.36,86.624 271.488,86.9866667 271.488,87.456 L271.488,87.456 L271.488,92.064 L271.644346,91.7620741 C273.508708,88.2845432 276.784593,86.3798519 281.472,86.048 L281.472,86.048 L282.368,85.984 L282.816,85.984 Z M193.152,85.856 C200.661333,85.856 204.416,89.7813333 204.416,97.632 L204.416,97.632 L204.416,116.448 L204.411349,116.616083 C204.361744,117.485361 203.915294,117.92 203.072,117.92 C202.645333,117.92 202.314667,117.792 202.08,117.536 C201.845333,117.28 201.728,116.917333 201.728,116.448 L201.728,116.448 L201.728,97.888 L201.724556,97.4819444 C201.671741,94.4042037 201.011556,92.1395556 199.744,90.688 C198.421333,89.1733333 196.288,88.416 193.344,88.416 C190.058667,88.416 187.424,89.4293333 185.44,91.456 C183.456,93.4826667 182.464,96.1813333 182.464,99.552 L182.464,99.552 L182.464,116.448 L182.4585,116.619 C182.432833,117.006333 182.317333,117.312 182.112,117.536 C181.877333,117.792 181.546667,117.92 181.12,117.92 C180.693333,117.92 180.362667,117.792 180.128,117.536 C179.893333,117.28 179.776,116.917333 179.776,116.448 L179.776,116.448 L179.776,87.456 L179.780651,87.287917 C179.830256,86.418639 180.276706,85.984 181.12,85.984 C181.546667,85.984 181.866667,86.112 182.08,86.368 C182.293333,86.624 182.4,86.9866667 182.4,87.456 L182.4,87.456 L182.4,92.192 L182.57063,91.8355709 C183.50723,89.9611903 184.86902,88.512 186.656,87.488 C188.554667,86.4 190.72,85.856 193.152,85.856 Z M303.232,88.48 C299.733333,88.48 297.045333,89.6426667 295.168,91.968 C293.290667,94.2933333 292.352,97.6106667 292.352,101.92 C292.352,106.229333 293.290667,109.557333 295.168,111.904 C297.045333,114.250667 299.712,115.424 303.168,115.424 C306.624,115.424 309.312,114.261333 311.232,111.936 C313.152,109.610667 314.112,106.314667 314.112,102.048 C314.112,97.7813333 313.152,94.4533333 311.232,92.064 C309.312,89.6746667 306.645333,88.48 303.232,88.48 Z M402.944,88.352 C399.701333,88.352 397.088,89.3653333 395.104,91.392 C393.12,93.4186667 391.957333,96.2453333 391.616,99.872 L391.616,99.872 L413.056,99.872 C412.970667,96.16 412.053333,93.312 410.304,91.328 C408.554667,89.344 406.101333,88.352 402.944,88.352 Z M247.488,88.352 C244.245333,88.352 241.632,89.3653333 239.648,91.392 C237.664,93.4186667 236.501333,96.2453333 236.16,99.872 L236.16,99.872 L257.6,99.872 C257.514667,96.16 256.597333,93.312 254.848,91.328 C253.098667,89.344 250.645333,88.352 247.488,88.352 Z M158.464,88.352 C155.221333,88.352 152.608,89.3653333 150.624,91.392 C148.64,93.4186667 147.477333,96.2453333 147.136,99.872 L147.136,99.872 L168.576,99.872 C168.490667,96.16 167.573333,93.312 165.824,91.328 C164.074667,89.344 161.621333,88.352 158.464,88.352 Z M348.032,73.632 C348.714667,73.632 349.28,73.8453333 349.728,74.272 C350.176,74.6986667 350.4,75.2746667 350.4,76 C350.4,76.6826667 350.165333,77.2373333 349.696,77.664 C349.226667,78.0906667 348.672,78.304 348.032,78.304 C347.392,78.304 346.837333,78.0906667 346.368,77.664 C345.898667,77.2373333 345.664,76.6826667 345.664,76 C345.664,75.2746667 345.888,74.6986667 346.336,74.272 C346.784,73.8453333 347.349333,73.632 348.032,73.632 Z M148.340334,6.4 C149.321534,6.4 150.170153,6.71780428 150.886189,7.35341283 C151.628713,8.01550224 152,8.90270443 152,10.0150194 L151.999,19.199 L160.8,19.2 C162.070255,19.2 163.110021,20.186839 163.194463,21.4356813 L163.2,21.6 C163.2,22.8702549 162.213161,23.9100212 160.964319,23.9944631 L160.8,24 L151.999,23.999 L152,47.4135668 L152.00115,47.8795921 C152.011897,50.0235185 152.097998,51.7354254 152.259456,53.0153174 C152.461243,54.4157016 152.648631,55.800966 153.167569,56.5304154 C153.715295,57.2889298 154.335113,57.8456035 155.027024,58.0498906 C155.656,58.2620261 156.511331,58.37776 157.593024,58.3970923 L157.924323,58.4 L162.075674,58.4 C163.587328,58.4413502 164.8,59.6790578 164.8,61.2 C164.8,62.6318494 163.725238,63.8126745 162.338434,63.9797551 L162.170568,63.99489 L162.118,63.997 L162.118922,64 L156.367566,64 L155.956863,63.9957574 C152.289334,63.9193902 149.399211,62.8120694 147.286487,60.6739606 C145.161877,58.5520298 144.067399,55.0035704 144.003018,50.0285721 L144,49.5579866 L143.999,23.999 L138.4,24 C137.129745,24 136.089979,23.013161 136.005537,21.7643187 L136,21.6 C136,20.3297451 136.986839,19.2899788 138.235681,19.2055369 L138.4,19.2 L144.165,19.199 L144.8,10.0150194 C144.799994,8.84973705 145.144748,7.9492916 145.834256,7.31368305 C146.523747,6.70456102 147.35911,6.4 148.340334,6.4 Z M313.666296,0 C314.727056,0 315.640503,0.354168833 316.406629,1.06237429 C317.149155,1.72344714 317.545191,2.61584311 317.594696,3.73956528 L317.6,3.98390359 L317.6,38.968 L337.712053,20.8285434 C338.29678,20.3314566 338.917414,20.0580059 339.57396,20.0082866 L339.794139,20 C340.739161,20 341.566088,20.3634398 342.27492,21.0901885 C343.013207,21.8170229 343.382373,22.6310295 343.382411,23.5322102 C343.382376,24.2784199 343.084581,24.9635247 342.489025,25.5875251 L342.319219,25.756192 L326.238443,39.9286437 L343.82541,58.156588 C344.475095,58.8252398 344.8,59.5811037 344.8,60.4241795 C344.8,61.3544796 344.416029,62.1830181 343.648212,62.9098071 C342.909843,63.6366024 342.053386,64 341.078828,64 C340.118969,64 339.286465,63.6490632 338.581314,62.9471896 L338.420848,62.7789892 L317.6,40.976 L317.6,59.9718355 C317.6,61.1286431 317.24063,62.0669412 316.521937,62.7867298 L316.362432,62.9376257 C315.566836,63.6458752 314.623927,64 313.533704,64 C312.443456,64 311.515275,63.660632 310.749174,62.981896 C310.034128,62.3208631 309.652776,61.4027619 309.605107,60.2275923 L309.6,59.9718355 L309.6,3.98390359 C309.6,2.74450847 309.997782,1.77066663 310.793371,1.06237429 C311.61841,0.354168833 312.576048,0 313.666296,0 Z M189.57607,19.2 C190.572808,19.2 191.351539,19.5584192 191.912249,20.2751239 C192.504052,20.9919166 192.8,21.8281234 192.8,22.7837465 C192.8,23.6797239 192.535198,24.4562016 192.0057,25.1131817 C191.476135,25.7403781 190.712981,26.0539511 189.716236,26.0539129 C185.511085,26.0539511 182.640434,27.0992137 180.304275,29.1896942 C178.054537,31.2300769 176.854878,33.9389652 176.800553,37.3163651 L176.8,59.8226443 C176.8,61.107986 176.387458,62.1331974 175.562432,62.8982785 C174.766836,63.6327595 173.823927,64 172.733704,64 C171.643456,64 170.715275,63.6480628 169.949174,62.9441885 C169.21252,62.2379567 168.830032,61.2487796 168.8017,59.9766571 L168.8,59.8226443 L168.8,23.3314556 C168.8,22.0461569 169.197782,21.0362469 169.993371,20.3017215 C170.81841,19.5672862 171.776048,19.2 172.866296,19.2 C173.927056,19.2 174.840503,19.5672862 175.606629,20.3017215 C176.37037,21.0068659 176.767539,21.9658047 176.798091,23.1785416 L176.8,23.3314556 L176.8,28.962 L176.916542,28.5720935 C177.728806,25.9689642 179.247413,23.7856697 181.472364,22.0222 C183.839675,20.1407777 186.27424,19.2 189.57607,19.2 Z M239.665256,19.2000032 C243.833269,19.2000032 247.707471,20.2740664 250.595398,22.2242192 C252.886004,23.7710368 254.746837,26.15388 255.498561,28.5028656 C255.930187,29.851569 255.995802,30.3499443 255.999897,32.3088963 C256.002098,33.5278044 255.969154,34.3499692 255.90228,34.7309092 C255.226418,38.5810831 253.616566,41.248399 250.822306,43.1476991 C248.574357,44.6756381 245.751133,45.5696972 242.058707,45.9228419 C240.199973,46.100606 236.800337,46.0838169 234.59799,45.8859235 C232.728878,45.718018 230.433728,45.4225684 229.454618,45.2238951 C228.635065,45.057564 225.828574,44.581216 225.805466,44.6045383 C225.79529,44.6149855 225.661752,45.4681535 225.508753,46.5009249 C225.264466,48.1499189 225.229861,48.5613765 225.224735,49.8780321 L225.224984,50.5244157 C225.231229,51.3182346 225.26777,51.5673959 225.396863,52.069368 C225.907782,54.0559977 227.033709,55.3848956 229.076427,56.4122521 C231.085908,57.4228932 233.192484,57.8602333 236.375485,57.9276545 C237.78468,57.9577895 238.506354,57.9367774 239.387976,57.841914 C241.525206,57.611546 242.499105,57.3587974 245.33857,56.2976714 C246.045784,56.0333427 246.76753,55.7928365 246.942459,55.763187 C247.317329,55.6996504 248.016466,55.8308584 248.423934,56.0412884 C249.159403,56.4209925 249.777321,57.4336641 249.773471,58.2528713 C249.769273,59.2099226 249.451665,59.7896095 248.51957,60.543485 C246.290901,62.3460233 243.445313,63.4514395 240.048464,63.8342925 C238.837192,63.9708417 236.071665,63.9909562 234.735848,63.8730354 C230.973964,63.5408881 228.362164,62.8868202 225.975275,61.6792863 C224.112847,60.7370671 222.691872,59.5681584 221.630575,58.1052421 C221.421955,57.8176647 221.238465,57.5661833 221.168313,57.471421 L221.138329,57.4316188 C221.128341,57.420583 220.955026,57.6282173 220.753115,57.8929581 C219.860618,59.0632793 218.495803,60.3211951 217.162046,61.2027618 C215.236567,62.4754361 212.472341,63.4463337 209.675314,63.8324384 C208.841173,63.9475342 206.073625,64.0425006 205.363953,63.9803177 C200.461967,63.5507173 196.716185,62.0476161 193.991733,59.4168506 C191.21983,56.7401763 190.030445,53.250519 190.499836,49.1714486 C191.039987,44.4773768 193.234338,41.1625261 197.081606,39.2286767 C200.046781,37.7382005 203.004852,37.1712415 207.822185,37.1700791 C211.244871,37.1686076 214.112879,37.4535218 218.487126,38.2271439 C219.568747,38.4184453 220.505186,38.5750502 220.568106,38.5751826 C220.659603,38.5751826 220.732167,38.2252457 220.930629,36.8261604 C221.289709,34.2947903 221.354067,33.4213166 221.25624,32.407306 C221.142372,31.2269642 220.993764,30.664758 220.553872,29.7500105 C219.418911,27.389945 216.724702,25.9459661 212.398276,25.3790072 C211.160956,25.2168697 208.305298,25.1941801 207.065806,25.336571 C204.989165,25.5752379 203.830327,25.8793395 201.245896,26.8637154 C199.733871,27.4396501 199.72696,27.4414306 199.12383,27.4054392 C198.086985,27.3436831 197.379167,26.8664817 196.925175,25.923203 C196.738206,25.5347587 196.70533,25.3744016 196.705323,24.8509971 C196.705323,24.0652651 196.906624,23.6481424 197.607563,22.9816114 C199.179403,21.4868827 201.824464,20.2139729 204.494119,19.6674375 C206.203522,19.3175006 207.044985,19.2439288 209.297123,19.2474456 C211.627509,19.2536256 213.117617,19.3848482 215.188558,19.776309 C218.633154,20.4273458 221.248683,21.574904 223.220943,23.3004127 C223.806145,23.8123841 224.688573,24.8200528 225.066688,25.4080533 C225.182257,25.5877892 225.301312,25.7348592 225.331246,25.7348592 C225.361199,25.7348592 225.552374,25.5188966 225.756112,25.2550093 C228.742544,21.3865602 233.772391,19.1969312 239.665256,19.2000032 Z M286.918922,0 L286.918,0.003 L286.970568,0.00511004474 C288.437537,0.093261098 289.6,1.31087667 289.6,2.8 C289.6,4.26262439 288.478541,5.46331802 287.048588,5.58911587 L286.875674,5.6 L282.724323,5.6 C281.484661,5.60005726 280.518897,5.7167604 279.827024,5.95010941 C279.135113,6.15439655 278.515295,6.71107022 277.967569,7.4695846 C277.448631,8.19903398 277.261243,9.58429844 277.059456,10.9846826 C276.897998,12.2645746 276.811897,13.9764815 276.80115,16.1204079 L276.8,16.5864332 L276.799,19.199 L284,19.2 C285.325483,19.2 286.4,20.2745166 286.4,21.6 C286.4,22.9254834 285.325483,24 284,24 L276.8,23.999 L276.8,59.9718355 C276.8,61.1286431 276.44063,62.0669412 275.721937,62.7867298 L275.562432,62.9376257 C274.766836,63.6458752 273.823927,64 272.733704,64 C271.643456,64 270.715275,63.660632 269.949174,62.981896 C269.234128,62.3208631 268.852776,61.4027619 268.805107,60.2275923 L268.8,59.9718355 L268.8,23.999 L262.4,24 C261.074517,24 260,22.9254834 260,21.6 C260,20.2745166 261.074517,19.2 262.4,19.2 L268.799,19.199 L268.8,14.4420134 C268.8,9.21960145 269.895483,5.51428054 272.086487,3.32603944 C274.199211,1.18793065 277.089334,0.0806097918 280.756863,0.00424262461 L281.167566,0 L286.918922,0 Z M297.666296,19.2 C298.727056,19.2 299.640503,19.5672862 300.406629,20.3017215 C301.149155,20.9872785 301.545191,21.9127262 301.594696,23.0780677 L301.6,23.3314556 L301.6,59.8226443 C301.6,61.107986 301.187458,62.1331974 300.362432,62.8982785 C299.566836,63.6327595 298.623927,64 297.533704,64 C296.443456,64 295.515275,63.6480628 294.749174,62.9441885 C294.034128,62.2586729 293.652776,61.3065679 293.605107,60.0878735 L293.6,59.8226443 L293.6,23.3314556 C293.6,22.0461569 293.997782,21.0362469 294.793371,20.3017215 C295.61841,19.5672862 296.576048,19.2 297.666296,19.2 Z M208.461309,43.031205 C205.482896,43.2020766 204.268701,43.4683803 202.480475,44.3430475 C201.564366,44.7911108 200.932068,45.2773614 200.431774,45.9184321 C199.714015,46.8382479 199.280782,47.752296 198.978802,48.9839382 C198.759047,49.88018 198.736622,52.2269177 198.940584,52.9830247 C199.284164,54.2566799 199.692028,54.9775482 200.609169,55.9320561 C201.865025,57.2390371 203.520561,58.1109283 205.574093,58.5469098 C206.624143,58.7698628 206.593067,58.7676909 208.35123,58.7405787 C209.626958,58.7207444 210.104263,58.684053 210.626149,58.565723 C212.84172,58.0628311 214.81612,56.9293251 216.249443,55.3374718 C217.556889,53.8854656 218.629266,51.7102036 219.219446,49.3130674 C219.552124,47.961772 220.105115,44.2008989 219.982534,44.1233451 C219.934158,44.0926802 219.641911,44.044281 219.333175,44.0156586 C219.101618,43.9940083 218.548704,43.9288716 217.963197,43.8548111 L217.571199,43.8044946 C217.506118,43.7960146 217.441426,43.7875193 217.377521,43.779056 C212.822429,43.1756835 210.027936,42.9412529 208.461309,43.031205 Z M236.242709,24.9852722 C234.620571,25.2899412 233.249387,25.845271 232.040059,26.6872575 C229.805794,28.2428835 228.263844,30.5878412 227.405199,33.7357947 C227.06793,34.9722814 226.978023,35.4468941 226.677322,37.5782811 L226.399943,39.544404 L226.771502,39.5865336 C227.893707,39.7146213 230.424248,40.0300314 231.89388,40.2250426 C232.818462,40.3477165 233.953181,40.4786263 234.415473,40.5160044 C235.649114,40.6156852 237.78566,40.6147896 239.137894,40.5204635 L239.458636,40.4949396 L239.458636,40.4953571 C241.30415,40.3277316 242.438918,40.0327959 243.833162,39.3585358 C244.992743,38.7976914 245.666717,38.2244933 246.304505,37.2566941 C247.24348,35.831805 247.609119,34.4833712 247.59991,32.4799278 C247.59302,31.0519719 247.475458,30.4579538 246.996578,29.4327916 C245.926599,27.1423028 243.41307,25.5016401 240.116455,24.9419188 C239.293839,24.8022837 237.085906,24.8270776 236.242709,24.9852722 Z M297.641024,0 C299.063235,0 300.211953,0.392815037 301.087179,1.17828078 C301.962381,1.93851472 302.4,2.95208827 302.4,4.21900466 C302.4,5.46068331 301.962381,6.47425686 301.087179,7.25972854 C300.211953,8.01995654 299.049559,8.4 297.6,8.4 C296.150418,8.4 294.988023,8.01995654 294.112821,7.25972854 C293.237601,6.47425686 292.8,5.46068331 292.8,4.21900466 C292.8,2.97742764 293.237601,1.96385409 294.112821,1.17828078 C295.015377,0.392815037 296.191442,0 297.641024,0 Z" id="Combined-Shape" fill="#000000"></path>
        </g>
    </g>
</svg>