<svg xmlns="http://www.w3.org/2000/svg" width="64" height="64" viewBox="0 0 64 64">
    <defs>
        <filter id="szsv7bgfha">
            <feColorMatrix in="SourceGraphic" values="0 0 0 0 0.116200 0 0 0 0 0.329451 0 0 0 0 0.835711 0 0 0 1.000000 0"/>
        </filter>
    </defs>
    <g fill="none" fill-rule="evenodd">
        <g>
            <g>
                <g transform="translate(-108 -1427) translate(0 1038) translate(108 389)">
                    <g fill="#1e54d5" fill-rule="nonzero">
                        <path d="M40.138 12.35c1.725.714 2.837 2.4 2.829 4.252l-.006.215-.12 2.325c-.027.542.176 1.07.56 1.454.34.34.796.54 1.273.56h.18l2.326-.12c1.936-.099 3.725 1.032 4.467 2.823.713 1.72.313 3.69-.993 4.996l-.168.16-1.728 1.557c-.402.363-.632.88-.632 1.422 0 .482.182.944.505 1.296l.127.127 1.728 1.563c1.439 1.3 1.903 3.364 1.161 5.155-.715 1.725-2.4 2.837-4.253 2.83l-.214-.007-2.326-.12c-.54-.02-1.066.182-1.453.56-.339.343-.537.797-.56 1.274v.18l.12 2.325c.098 1.936-1.032 3.725-2.823 4.467-1.72.713-3.69.313-4.996-.993l-.16-.167-1.562-1.728c-.372-.387-.886-.605-1.422-.605-.476 0-.935.173-1.292.482l-.13.123-1.562 1.73c-.633.701-1.449 1.171-2.326 1.383V38.853c1.489 1.152 3.346 1.814 5.31 1.812 4.781-.01 8.653-3.886 8.659-8.667 0-3.506-2.113-6.667-5.352-8.007-2.896-1.2-6.183-.733-8.618 1.152l.001-13.015c.805.194 1.558.606 2.167 1.214l.16.168 1.562 1.73c.373.386.885.603 1.421.603.476 0 .935-.172 1.292-.48l.13-.122 1.562-1.73c1.3-1.439 3.365-1.904 5.156-1.162z" transform="translate(5.333)"/>
                        <path d="M46.688 49.333c-1.473 0-2.667 1.194-2.667 2.667v1.333c0 .737-.597 1.334-1.333 1.334H28.021c-.736 0-1.333-.597-1.333-1.334V10.667c0-.737.597-1.334 1.333-1.334h14.667c.736 0 1.333.597 1.333 1.334v2.666c0 1.473 1.194 2.667 2.667 2.667 1.473 0 2.667-1.194 2.667-2.667V6.667C49.355 5.194 48.16 4 46.688 4h-20V1.333c0-.404-.184-.786-.499-1.039-.315-.253-.728-.35-1.122-.262l-24 5.333C.457 5.5.02 6.041.02 6.667v50.666c0 .627.434 1.17 1.046 1.304l24 5.334c.395.083.807-.015 1.122-.267.316-.253.5-.636.499-1.04v-2.667h20c1.473 0 2.667-1.194 2.667-2.666v-5.334c-.002-1.471-1.195-2.664-2.667-2.664zm-26.667-16c0 2.21-1.79 4-4 4-2.209 0-4-1.79-4-4 0-2.209 1.791-4 4-4 2.21 0 4 1.791 4 4z" opacity=".6" transform="translate(5.333)"/>
                    </g>
                </g>
            </g>
        </g>
    </g>
</svg>
