<svg xmlns="http://www.w3.org/2000/svg" viewBox="0 0 173 54"><defs><filter id="a"><feColorMatrix in="SourceGraphic" values="0 0 0 0 0.000000 0 0 0 0 0.000000 0 0 0 0 0.000000 0 0 0 1.000000 0"/></filter></defs><g fill="none" fill-rule="evenodd"><g filter="url(#a)"><path fill="#000" fill-rule="nonzero" d="M125.958 35.663c1.134 0 2.135.28 3.004.838.868.558 1.542 1.342 2.02 2.352.479 1.01.718 2.19.718 3.536 0 1.33-.24 2.495-.718 3.496s-1.152 1.777-2.02 2.326c-.869.55-1.87.824-3.004.824-1.082 0-2.008-.239-2.778-.717-.771-.479-1.352-1.17-1.742-2.074v6.912l-.006.112a.58.58 0 01-.14.34.532.532 0 01-.412.16c-.372 0-.558-.204-.558-.612V36.3l.006-.102a.56.56 0 01.14-.323c.097-.106.235-.16.412-.16s.315.054.412.16a.606.606 0 01.146.425v2.1l.123-.26c.385-.76.925-1.35 1.619-1.773.77-.47 1.696-.705 2.778-.705zm41.418 0c1.631 0 2.916.532 3.855 1.595.94 1.064 1.41 2.517 1.41 4.36 0 .32-.063.55-.187.691-.124.142-.346.213-.665.213h-9.145l.009.321c.066 1.582.501 2.813 1.307 3.693.86.94 2.07 1.41 3.63 1.41.85 0 1.554-.116 2.113-.346a8.525 8.525 0 001.635-.904c.372-.248.611-.372.717-.372.124 0 .23.048.32.146a.48.48 0 01.132.332c0 .177-.066.35-.2.519-.132.168-.367.359-.704.571-1.276.762-2.596 1.143-3.96 1.143-1.933 0-3.452-.593-4.56-1.78-1.108-1.188-1.662-2.819-1.662-4.892 0-1.33.249-2.5.745-3.51.496-1.01 1.196-1.794 2.1-2.352.904-.559 1.94-.838 3.11-.838zm-13.451 0a6.66 6.66 0 011.887.266 5.502 5.502 0 011.595.744c.337.249.58.466.731.652.15.186.226.376.226.571a.482.482 0 01-.133.333.417.417 0 01-.319.146c-.141 0-.372-.133-.69-.399a7.48 7.48 0 00-1.45-.877c-.505-.23-1.138-.346-1.9-.346-.993 0-1.795.235-2.406.705-.612.47-.918 1.085-.918 1.847 0 .461.098.838.293 1.13.195.293.527.545.997.758.47.213 1.138.416 2.007.611 1.223.302 2.162.607 2.818.917.656.31 1.12.683 1.396 1.117.274.434.412.988.412 1.662 0 1.063-.44 1.918-1.316 2.565-.878.647-2.043.97-3.496.97a7.33 7.33 0 01-2.074-.305 7.11 7.11 0 01-1.86-.838c-.355-.23-.594-.42-.719-.571a.795.795 0 01-.186-.519c0-.124.045-.235.133-.332a.416.416 0 01.32-.146c.088 0 .208.048.358.146.15.097.253.164.306.2a8.39 8.39 0 001.608.916c.559.24 1.263.36 2.114.36 1.152 0 2.038-.213 2.658-.639.62-.425.93-1.028.93-1.807 0-.461-.11-.842-.332-1.144-.221-.3-.584-.562-1.09-.784-.505-.221-1.227-.438-2.166-.651-1.56-.355-2.676-.807-3.35-1.356-.673-.55-1.01-1.276-1.01-2.18 0-1.099.43-1.994 1.29-2.685.859-.691 1.97-1.037 3.336-1.037zm-51.123 0c1.63 0 2.916.532 3.855 1.595.94 1.064 1.41 2.517 1.41 4.36 0 .32-.063.55-.187.691-.124.142-.346.213-.665.213H98.07l.009.321c.066 1.582.501 2.813 1.307 3.693.86.94 2.07 1.41 3.63 1.41.85 0 1.554-.116 2.113-.346a8.525 8.525 0 001.635-.904c.372-.248.611-.372.717-.372.124 0 .23.048.32.146a.48.48 0 01.132.332c0 .177-.066.35-.2.519-.132.168-.367.359-.704.571-1.276.762-2.596 1.143-3.96 1.143-1.933 0-3.452-.593-4.56-1.78-1.108-1.188-1.662-2.819-1.662-4.892 0-1.33.249-2.5.745-3.51.496-1.01 1.196-1.794 2.1-2.352.904-.559 1.94-.838 3.11-.838zm-36.979 0c1.63 0 2.916.532 3.855 1.595.94 1.064 1.409 2.517 1.409 4.36 0 .32-.062.55-.186.691-.124.142-.346.213-.665.213h-9.144l.008.321c.066 1.582.502 2.813 1.308 3.693.86.94 2.07 1.41 3.629 1.41.85 0 1.555-.116 2.113-.346a8.465 8.465 0 001.635-.904c.372-.248.612-.372.718-.372.124 0 .23.048.32.146a.48.48 0 01.132.332c0 .177-.066.35-.2.519-.132.168-.367.359-.704.571-1.276.762-2.596 1.143-3.961 1.143-1.932 0-3.452-.593-4.56-1.78-1.107-1.188-1.66-2.819-1.66-4.892 0-1.33.247-2.5.744-3.51.496-1.01 1.196-1.794 2.1-2.352.904-.559 1.94-.838 3.11-.838zm24.644-3.828c.16 0 .293.053.399.16.106.106.16.257.16.452v3.535h3.535l.09.01a.428.428 0 01.23.136.52.52 0 01.132.36c0 .123-.04.23-.12.318a.422.422 0 01-.332.133h-3.536v7.47l.005.273c.033 1.063.266 1.832.7 2.306.47.514 1.2.816 2.193.904l.718.053.123.017c.308.06.462.231.462.515 0 .39-.257.558-.771.505l-.691-.053-.28-.024c-1.187-.124-2.069-.52-2.645-1.186-.62-.717-.93-1.83-.93-3.336v-7.444h-2.207l-.09-.008a.438.438 0 01-.229-.125.437.437 0 01-.133-.319.52.52 0 01.133-.359.419.419 0 01.32-.146h2.206v-3.535l.006-.112a.557.557 0 01.153-.34.542.542 0 01.4-.16zm54.1 3.881c.177 0 .314.054.412.16a.606.606 0 01.146.425v12.07l-.006.111a.574.574 0 01-.14.34c-.098.107-.235.16-.412.16s-.315-.053-.412-.16c-.098-.106-.146-.256-.146-.451V36.3l.005-.102a.572.572 0 01.14-.323.536.536 0 01.413-.16zm-3.403 0l.12.005c.149.013.255.051.319.115.08.08.12.2.12.359 0 .301-.187.478-.559.532l-.798.08-.254.029c-1.168.16-2.058.629-2.67 1.406-.656.833-.983 1.79-.983 2.871v7.258l-.006.111a.587.587 0 01-.14.34c-.098.107-.236.16-.413.16s-.314-.053-.412-.16c-.097-.106-.146-.256-.146-.451V36.328l.006-.116c.033-.33.217-.496.552-.496.16 0 .293.054.399.16.106.106.16.257.16.452v1.914l.107-.204c.782-1.395 2.128-2.16 4.04-2.295l.372-.027h.186zm-23.687 0l.12.005c.149.013.255.051.319.115.08.08.12.2.12.359 0 .301-.187.478-.559.532l-.797.08-.255.029c-1.168.16-2.058.629-2.67 1.406a4.516 4.516 0 00-.983 2.871v7.258l-.006.111a.587.587 0 01-.14.34c-.098.107-.235.16-.413.16-.177 0-.314-.053-.412-.16-.097-.106-.146-.256-.146-.451V36.328l.006-.116c.033-.33.217-.496.552-.496.16 0 .293.054.4.16.105.106.159.257.159.452v1.914l.107-.204c.782-1.395 2.128-2.16 4.04-2.295l.372-.027h.186zm-37.245-.053c3.12 0 4.679 1.63 4.679 4.892v7.816l-.006.116c-.033.33-.217.495-.552.495-.178 0-.315-.053-.412-.16-.098-.106-.147-.256-.147-.451v-7.71l-.004-.287c-.036-1.218-.31-2.12-.82-2.704-.55-.629-1.435-.943-2.658-.943-1.365 0-2.46.42-3.283 1.262-.825.842-1.237 1.963-1.237 3.363v7.019l-.005.111a.587.587 0 01-.14.34c-.098.107-.236.16-.413.16s-.314-.053-.412-.16c-.097-.106-.146-.256-.146-.451V36.328l.005-.116c.034-.33.218-.496.553-.496.177 0 .31.054.399.16.089.106.133.257.133.452v1.967l.123-.25a4.186 4.186 0 011.645-1.704c.788-.452 1.688-.678 2.698-.678zm45.726 1.09c-1.454 0-2.57.483-3.35 1.45-.78.965-1.17 2.343-1.17 4.133s.39 3.172 1.17 4.147c.78.975 1.887 1.462 3.323 1.462s2.552-.483 3.35-1.449c.797-.965 1.196-2.335 1.196-4.107 0-1.772-.399-3.155-1.196-4.147-.798-.993-1.906-1.489-3.323-1.489zm41.418-.053c-1.347 0-2.432.421-3.256 1.263-.824.842-1.307 2.016-1.449 3.522h8.906c-.036-1.542-.417-2.725-1.143-3.549-.727-.824-1.746-1.236-3.058-1.236zm-64.574 0c-1.347 0-2.432.421-3.256 1.263-.824.842-1.307 2.016-1.45 3.522h8.907c-.036-1.542-.417-2.725-1.143-3.549-.727-.824-1.746-1.236-3.058-1.236zm-36.979 0c-1.347 0-2.432.421-3.256 1.263-.825.842-1.307 2.016-1.45 3.522h8.907c-.036-1.542-.417-2.725-1.144-3.549-.726-.824-1.745-1.236-3.057-1.236zm78.744-6.114a.98.98 0 01.704.265c.186.178.28.417.28.718a.89.89 0 01-.293.691.99.99 0 01-.691.266.99.99 0 01-.691-.266.889.889 0 01-.293-.69c0-.302.093-.541.28-.719a.977.977 0 01.704-.265zM61.618 2.658c.408 0 .76.132 1.057.396.309.276.463.644.463 1.106v3.814l3.656.001c.51 0 .932.385.99.881l.006.116a.995.995 0 01-.88.99l-.116.007h-3.656v9.726l.001.32c.008.831.043 1.5.107 2.007.084.581.162 1.157.377 1.46.228.315.485.546.773.631.246.083.576.13.99.142l.213.003h1.724a1.165 1.165 0 01.219 2.3l-.123.02-.078.005v.002h-2.389l-.296-.006c-1.464-.054-2.623-.513-3.476-1.376-.862-.861-1.316-2.288-1.361-4.28l-.004-.337V9.968l-2.326.002a.997.997 0 01-.99-.88l-.007-.118c0-.511.385-.932.88-.99l.117-.007h2.395l.263-3.815c0-.484.144-.858.43-1.122.286-.253.633-.38 1.041-.38zm17.129 5.317c.414 0 .737.15.97.447.246.298.369.645.369 1.042 0 .372-.11.695-.33.968-.22.26-.537.39-.951.39-1.747 0-2.94.435-3.91 1.303-.938.85-1.436 1.981-1.455 3.391v9.333c0 .534-.172.96-.514 1.278-.33.305-.723.458-1.175.458a1.65 1.65 0 01-1.157-.439c-.306-.293-.465-.704-.477-1.233V9.692c0-.534.165-.954.495-1.259a1.74 1.74 0 011.194-.458c.44 0 .82.153 1.138.458.317.293.482.691.495 1.195v2.404c.324-1.154.971-2.115 1.942-2.884.983-.782 1.994-1.173 3.366-1.173zm20.806 0c1.731 0 3.34.447 4.54 1.257.952.642 1.725 1.632 2.037 2.608.18.56.206.767.208 1.58.001.507-.013.848-.04 1.007-.281 1.599-.95 2.707-2.11 3.496-.934.635-2.107 1.006-3.64 1.153-.773.073-2.185.067-3.1-.016-.776-.07-1.73-.192-2.136-.275-.34-.069-1.507-.267-1.516-.257-.004.004-.06.359-.123.788-.102.685-.116.856-.118 1.403v.283c.003.318.018.422.071.627.212.825.68 1.377 1.529 1.804.834.42 1.71.601 3.031.63.586.012.886.003 1.252-.036.888-.096 1.292-.201 2.472-.642.293-.11.593-.21.666-.222.156-.026.446.028.615.116.306.157.562.578.56.918-.001.398-.133.639-.52.952-.926.749-2.108 1.208-3.519 1.367-.503.057-1.652.065-2.207.016-1.562-.138-2.647-.41-3.639-.911-.773-.392-1.364-.877-1.804-1.485-.109-.15-.2-.275-.205-.28a1.497 1.497 0 00-.16.192 6.504 6.504 0 01-1.492 1.375c-.8.528-1.948.932-3.11 1.092-.346.048-1.495.087-1.79.061-2.036-.178-3.592-.802-4.724-1.895-1.152-1.112-1.646-2.562-1.45-4.256.224-1.95 1.135-3.327 2.733-4.13 1.232-.62 2.46-.855 4.462-.855 1.422 0 2.613.118 4.43.439.45.08.838.144.864.145.038 0 .068-.146.15-.727.15-1.051.177-1.414.136-1.836-.047-.49-.109-.723-.292-1.103-.471-.98-1.59-1.58-3.387-1.816-.514-.067-1.7-.077-2.215-.018-.863.1-1.344.226-2.418.635-.628.239-.63.24-.881.225-.431-.026-.725-.224-.914-.616-.077-.161-.09-.228-.09-.445 0-.327.083-.5.374-.777.653-.62 1.751-1.15 2.86-1.376.71-.146 1.06-.176 1.995-.175.969.003 1.587.057 2.448.22 1.43.27 2.517.747 3.336 1.464.243.212.61.63.767.875.048.075.097.136.11.136.012 0 .092-.09.176-.2 1.24-1.606 3.33-2.516 5.778-2.515zM119.181 0v.002l.078.005a1.164 1.164 0 01-.094 2.319h-1.726c-.515 0-.916.049-1.203.146-.288.084-.545.316-.773.63-.215.304-.293.88-.377 1.46-.064.507-.1 1.176-.107 2.008v.32l-.001 1.085h2.99a.997.997 0 11.001 1.994h-2.991v14.942c0 .458-.135.833-.406 1.126l-.108.106c-.33.295-.722.442-1.175.442-.453 0-.838-.141-1.157-.423-.282-.262-.44-.62-.471-1.075l-.006-.176V9.97h-2.658a.997.997 0 110-1.994h2.658V5.999c0-2.17.455-3.708 1.365-4.617.853-.864 2.012-1.323 3.476-1.377l.296-.005h2.39zm4.465 7.975c.44 0 .82.153 1.138.458.294.271.457.633.49 1.085l.006.174v15.157c0 .534-.172.96-.514 1.278-.33.305-.723.458-1.175.458a1.65 1.65 0 01-1.157-.439c-.283-.271-.44-.643-.471-1.115l-.006-.182V9.692c0-.534.165-.954.495-1.259a1.74 1.74 0 011.194-.458zM130.292 0c.44 0 .82.147 1.138.441.294.262.457.61.49 1.046l.006.168v14.532l8.354-7.535c.27-.23.558-.344.865-.344.392 0 .736.15 1.03.453.307.301.46.64.46 1.014 0 .29-.108.557-.324.803l-.117.12-6.68 5.888 7.305 7.571c.27.278.405.592.405.942 0 .387-.16.73-.478 1.033a1.477 1.477 0 01-1.067.453c-.376 0-.705-.13-.987-.389l-.117-.119-8.65-9.057v7.891c0 .515-.17.926-.513 1.232-.33.295-.722.442-1.175.442-.453 0-.839-.141-1.157-.423-.283-.262-.44-.62-.471-1.075l-.006-.176V1.655c0-.515.165-.92.495-1.214A1.781 1.781 0 01130.292 0zm-43.7 17.875c-1.238.07-1.742.181-2.485.544-.38.187-.643.389-.851.655a3.179 3.179 0 00-.604 1.273c-.09.372-.1 1.347-.015 1.661.142.53.312.829.693 1.225.521.543 1.209.905 2.062 1.086.436.093.423.092 1.154.08.53-.007.728-.023.945-.072.92-.209 1.74-.68 2.335-1.34.543-.604.989-1.507 1.234-2.503.138-.561.368-2.124.317-2.156a1.21 1.21 0 00-.27-.045 31.311 31.311 0 01-.812-.098c-1.892-.25-3.053-.348-3.704-.31zm11.54-7.497c-.675.127-1.244.358-1.746.707-.929.647-1.569 1.62-1.926 2.928-.14.514-.177.711-.302 1.596l-.115.817.154.018c.466.053 1.517.184 2.128.265.384.05.855.105 1.047.12.486.04 1.309.042 1.872.008l.223-.016c.767-.07 1.238-.192 1.817-.472.482-.233.762-.471 1.027-.873.39-.592.542-1.152.538-1.984-.003-.593-.052-.84-.25-1.266-.445-.952-1.49-1.633-2.859-1.866-.341-.058-1.258-.047-1.609.018zM123.634 0c.591 0 1.068.163 1.432.49.363.315.545.736.545 1.263 0 .515-.182.936-.545 1.263-.364.315-.847.473-1.449.473-.602 0-1.085-.158-1.448-.473-.364-.327-.546-.748-.546-1.263 0-.516.182-.937.546-1.264.376-.326.863-.489 1.466-.489z"/></g><path fill="#0060E0" fill-rule="nonzero" d="M24.11 2.214l.078.042 21.328 12.153c1.345.766 1.336 2.695.013 3.457l-.072.04-5.04 2.651a.665.665 0 00-.02 1.167l5.19 2.945c1.33.755 1.345 2.652.057 3.436l-.072.041-5.254 2.92a.665.665 0 00.013 1.169l5.126 2.696.072.04c1.3.75 1.331 2.623.058 3.415l-.07.042-21.329 12.154-.077.042a1.996 1.996 0 01-1.821 0l-.077-.043L1.006 38.478l-.071-.042c-1.275-.795-1.24-2.672.064-3.418l.073-.04 5.267-2.747a.663.663 0 00.018-1.169l-5.292-2.97c-1.329-.746-1.357-2.636-.08-3.43l.07-.042 5.15-2.928a.665.665 0 00-.021-1.166l-5.112-2.667c-1.374-.717-1.435-2.648-.137-3.457l.07-.042L22.214 2.256a1.991 1.991 0 011.898-.042zm10.34 32.114l-10.22 5.68a1.995 1.995 0 01-1.865.038l-.08-.042-10.077-5.657a1.33 1.33 0 00-1.265-.02l-3.71 1.935a.666.666 0 00-.021 1.167l15.331 8.75c.408.233.91.233 1.317 0l15.465-8.812a.664.664 0 00-.02-1.166l-3.59-1.888a1.33 1.33 0 00-1.265.015zM22.606 16.954L7.117 25.761a.665.665 0 00.003 1.157l15.498 8.7c.403.226.894.227 1.297.002l15.583-8.66a.666.666 0 00.005-1.159l-15.584-8.847a1.333 1.333 0 00-1.313 0zm-.063-10.296l-15.331 8.75a.664.664 0 00.022 1.167l3.515 1.833c.4.209.88.2 1.272-.023l10.255-5.83a1.995 1.995 0 011.89-.044l.08.043 10.348 5.874a1.33 1.33 0 001.276.02l3.437-1.812a.664.664 0 00.019-1.166L23.86 6.658a1.333 1.333 0 00-1.317 0z"/></g></svg>