<svg xmlns="http://www.w3.org/2000/svg" width="64" height="64" viewBox="0 0 64 64">
    <defs>
        <filter id="asyv85gmca">
            <feColorMatrix in="SourceGraphic" values="0 0 0 0 0.116200 0 0 0 0 0.329451 0 0 0 0 0.835711 0 0 0 1.000000 0"/>
        </filter>
    </defs>
    <g fill="none" fill-rule="evenodd">
        <g>
            <g>
                <g fill="#1e54d5" fill-rule="nonzero" transform="translate(-108 -1339) translate(0 1038) translate(108 301)">
                    <path d="M50.15 30.859c.773-.256 1.61-.256 2.383 0l8.883 2.965c1.523.541 2.552 1.968 2.584 3.584v11.659c.002 1.63-1.044 3.078-2.592 3.589l-8.888 2.96c-.775.258-1.612.258-2.387 0l-8.872-2.965c-1.544-.512-2.586-1.957-2.584-3.584V37.408c-.001-1.626 1.039-3.07 2.582-3.584zm9.6 8.413c-.172-.123-.394-.157-.595-.09l-6.488 2.165v9.13c0 .215.103.417.277.542.175.126.4.16.603.09l6.144-2.096c.275-.09.458-.35.453-.64l-.112-8.568c-.004-.212-.108-.41-.281-.533zm-8.489-4.605l-3.477 1.165c-.272.091-.454.346-.454.632 0 .286.182.54.454.632l2.376.8c.14.05.294.05.435 0 .546-.195 1.997-.699 3.213-1.117.272-.091.454-.346.454-.632 0-.287-.182-.541-.454-.632l-2.547-.848zM36.664.213c.866-.285 1.8-.285 2.667 0l11.114 3.715c1.701.603 2.851 2.196 2.888 4v14.573c.003 1.819-1.162 3.434-2.888 4.006l-11.112 3.701c-.866.285-1.8.285-2.666 0l-11.112-3.707c-1.724-.572-2.887-2.184-2.888-4V7.928c-.004-1.819 1.161-3.434 2.888-4.005zm12.373 9.28c-.173-.128-.398-.162-.602-.093l-8.646 2.88c-.272.09-.455.345-.456.632v12.123c0 .213.103.414.277.539.173.125.395.16.598.093l8.512-2.806c.271-.087.456-.339.459-.624l.125-12.197c.003-.214-.096-.417-.267-.547zM38.075 4.011l-6.206 2.037c-.271.091-.454.346-.454.632 0 .286.183.54.454.632l4.974 1.659c.14.048.292.048.432 0 .824-.288 3.85-1.323 5.866-2.008.272-.091.455-.346.455-.632 0-.287-.183-.541-.455-.632L38.075 4.01z" opacity=".6"/>
                    <path d="M32.8 32.968l-13.333-4.435c-.953-.313-1.98-.313-2.934 0L3.2 32.976c-1.908.63-3.198 2.412-3.2 4.421v17.491c-.001 2.012 1.29 3.797 3.2 4.427l13.333 4.445c.952.317 1.982.317 2.934 0L32.8 59.317c1.91-.631 3.2-2.417 3.2-4.429v-17.49c-.04-2-1.315-3.764-3.2-4.43zm-15.013-.648c.068-.023.14-.035.213-.035.071 0 .143.01.21.032l7.585 2.528c.271.091.454.346.454.632 0 .287-.183.541-.454.632-2.702.915-7.467 2.534-8.534 2.902-.139.048-.29.048-.429 0L9.16 36.453c-.274-.09-.459-.345-.459-.633 0-.288.185-.543.459-.633l8.627-2.867zm13.757 23.2l-11.333 3.779c-.204.067-.427.033-.6-.092-.174-.125-.278-.326-.278-.54V42.952c0-.287.184-.541.456-.632l11.334-3.779c.203-.066.426-.031.6.094.174.126.277.327.277.541v15.712c0 .287-.184.541-.456.632z"/>
                </g>
            </g>
        </g>
    </g>
</svg>
