<svg xmlns="http://www.w3.org/2000/svg" xmlns:xlink="http://www.w3.org/1999/xlink" width="99" height="74" viewBox="0 0 99 74">
    <defs>
        <linearGradient id="eyo0tjn7aa" x1="50%" x2="50%" y1="0%" y2="100%">
            <stop offset="0%" stop-opacity=".053"/>
            <stop offset="100%" stop-opacity=".941"/>
        </linearGradient>
        <linearGradient id="6rcdd3qqrd" x1=".702%" x2="98.733%" y1="50%" y2="50%">
            <stop offset="0%" stop-color="#FFF" stop-opacity=".639"/>
            <stop offset="100%" stop-color="#FFF"/>
        </linearGradient>
        <linearGradient id="patw32nv2c" x1="50%" x2="50%" y1=".257%" y2="100%">
            <stop offset="0%" stop-color="#FFF" stop-opacity="0"/>
            <stop offset="100%" stop-color="#FFF" stop-opacity=".4"/>
        </linearGradient>
        <linearGradient id="d9bzz1t0sf" x1="1.358%" x2="100%" y1="50%" y2="50%">
            <stop offset="0%" stop-color="#FFF" stop-opacity=".7"/>
            <stop offset="100%" stop-color="#FFF" stop-opacity=".9"/>
        </linearGradient>
        <linearGradient id="cxcrik6soe" x1="50%" x2="50%" y1=".257%" y2="100%">
            <stop offset="0%" stop-color="#FFF" stop-opacity="0"/>
            <stop offset="100%" stop-color="#FFF"/>
        </linearGradient>
        <linearGradient id="7bx6xjv9dn" x1="62.212%" x2="62.212%" y1="0%" y2="100%">
            <stop offset="0%" stop-opacity=".4"/>
            <stop offset="100%"/>
        </linearGradient>
        <linearGradient id="2ns0ee9nzq" x1="50%" x2="80.75%" y1="32.404%" y2="67.596%">
            <stop offset="0%" stop-color="#DF8826"/>
            <stop offset="100%" stop-color="#DB7D11"/>
        </linearGradient>
        <filter id="nhj49s79gb" width="114.3%" height="124.8%" x="-7.1%" y="-12.4%" filterUnits="objectBoundingBox">
            <feGaussianBlur in="SourceGraphic" stdDeviation="2.045"/>
        </filter>
        <filter id="r7jnl0krwh" width="127.8%" height="148.2%" x="-13.9%" y="-24.1%" filterUnits="objectBoundingBox">
            <feGaussianBlur in="SourceAlpha" result="shadowBlurInner1" stdDeviation="2.5"/>
            <feOffset dy="19" in="shadowBlurInner1" result="shadowOffsetInner1"/>
            <feComposite in="shadowOffsetInner1" in2="SourceAlpha" k2="-1" k3="1" operator="arithmetic" result="shadowInnerInner1"/>
            <feColorMatrix in="shadowInnerInner1" values="0 0 0 0 0 0 0 0 0 0 0 0 0 0 0 0 0 0 0.5 0"/>
        </filter>
        <filter id="2wq5g4rekk">
            <feColorMatrix in="SourceGraphic" values="0 0 0 0 0.858824 0 0 0 0 0.490196 0 0 0 0 0.066667 0 0 0 1.000000 0"/>
        </filter>
        <filter id="7083fbydno" width="206.3%" height="279.1%" x="-53.1%" y="-89.6%" filterUnits="objectBoundingBox">
            <feGaussianBlur in="SourceGraphic" stdDeviation="7.2"/>
        </filter>
        <radialGradient id="d62md6wrvj" cx="48.18%" cy="52.179%" r="29.45%" fx="48.18%" fy="52.179%" gradientTransform="matrix(-.57363 .10715 -.04042 -.65 .78 .81)">
            <stop offset="0%" stop-color="#FFF"/>
            <stop offset="99.137%" stop-color="#FFF" stop-opacity="0"/>
            <stop offset="100%" stop-color="#CC7613" stop-opacity="0"/>
        </radialGradient>
        <radialGradient id="ourj0za7dm" cx="50%" cy="56.122%" r="43.878%" fx="50%" fy="56.122%" gradientTransform="matrix(0 1 -1.04665 0 1.087 .061)">
            <stop offset="0%" stop-color="#FFF" stop-opacity=".622"/>
            <stop offset="100%" stop-color="#FFF" stop-opacity="0"/>
        </radialGradient>
        <radialGradient id="vc6rvj6kcp" cx="77.364%" cy="47.298%" r="109.159%" fx="77.364%" fy="47.298%" gradientTransform="scale(-.59322 -1) rotate(-6.475 -8.627 18.366)">
            <stop offset="0%" stop-color="#B06610"/>
            <stop offset="100%" stop-color="#8E510B"/>
        </radialGradient>
        <ellipse id="8as07ytz1l" cx="48.098" cy="25.719" rx="48.098" ry="25.719"/>
        <path id="cw2wflhfbg" d="M52.216 2.55C46.87-.532 38.773-.867 34.144 1.802L3.124 19.69c-4.628 2.67-4.047 7.34 1.298 10.422l29.624 17.084c5.345 3.082 13.443 3.418 18.072.748l31.019-17.888c4.629-2.67 4.048-7.34-1.298-10.422L52.216 2.55z"/>
    </defs>
    <g fill="none" fill-rule="evenodd">
        <g>
            <g>
                <g>
                    <path fill="url(#eyo0tjn7aa)" d="M57.259 15.285c-5.32-3.06-13.379-3.394-17.986-.743L8.402 32.303c-4.607 2.65-4.028 7.288 1.291 10.348l29.482 16.963c5.32 3.06 13.38 3.393 17.986.743l30.871-17.762c4.607-2.65 4.029-7.287-1.291-10.348L57.259 15.285z" filter="url(#nhj49s79gb)" opacity=".3" transform="translate(-107 -361) translate(108 365) translate(.496 .747)"/>
                    <path fill="url(#6rcdd3qqrd)" fill-opacity=".5" stroke="url(#patw32nv2c)" stroke-width="2.765" d="M58.018 7.244c-5.94-3.425-14.937-3.798-20.08-.832L3.471 26.288c-5.143 2.966-4.498 8.155 1.442 11.58L37.829 56.85c5.939 3.425 14.936 3.797 20.08.831l34.465-19.876c5.144-2.966 4.498-8.155-1.441-11.58L58.018 7.244z" transform="translate(-107 -361) translate(108 365) translate(.496 .747)"/>
                    <path fill="url(#d9bzz1t0sf)" stroke="url(#cxcrik6soe)" stroke-width="2.765" d="M58.018 2.833c-5.94-3.424-14.937-3.797-20.08-.83L3.471 21.877c-5.143 2.966-4.498 8.155 1.442 11.58L37.829 52.44c5.939 3.425 14.936 3.797 20.08.831l34.465-19.876c5.144-2.966 4.498-8.155-1.441-11.58L58.018 2.833z" opacity=".9" transform="translate(-107 -361) translate(108 365) translate(.496 .747)"/>
                    <g transform="translate(-107 -361) translate(108 365) translate(.496 .747) translate(4.792 2.764)">
                        <mask id="lymtap6iqi" fill="#fff">
                            <use xlink:href="#cw2wflhfbg"/>
                        </mask>
                        <g>
                            <use fill="#10072A" xlink:href="#cw2wflhfbg"/>
                            <use fill="#000" filter="url(#r7jnl0krwh)" xlink:href="#cw2wflhfbg"/>
                        </g>
                        <g fill="url(#d62md6wrvj)" fill-rule="nonzero" mask="url(#lymtap6iqi)" opacity=".166">
                            <path d="M294.291.175c.409.21.368.363.249.431L164.186 75.847l10.125 5.834L304.958 6.27c.409.21.368.362.25.43L174.81 81.969l10.646 6.135 130.55-75.356c.41.21.368.362.25.43L185.721 88.526c1.225.682 4.79 2.717 10.698 6.103l130.635-75.405c.408.21.368.362.249.431l-130.386 75.26c2.857 1.638 6.238 3.58 10.143 5.823l130.66-75.419c.41.21.369.363.25.431l-130.41 75.274.825.475c21.281 12.227 57.237 32.93 107.87 62.106.099.057.143.172.116.278l-.026.062c-.041.072-36.414-20.835-109.119-62.722l-10.8 6.228c21.158 12.156 57.418 33.033 108.78 62.63.12.069.16.22.091.34-.042.072-36.443-20.852-109.205-62.772l-10.47 6.038c21.192 12.176 57.37 33.005 108.536 62.49.119.068.16.22.091.339-.042.072-36.362-20.805-108.961-62.631l-10.61 6.12c21.154 12.153 57.425 33.035 108.813 62.647.119.069.16.221.09.34-.041.073-36.453-20.857-109.236-62.79l-10.471 6.038c21.188 12.173 57.377 33.009 108.569 62.507.119.07.16.221.09.34-.041.073-36.372-20.81-108.993-62.65l-10.28 5.929c21.196 12.177 57.367 33.003 108.515 62.477.12.068.16.22.091.34-.041.072-36.354-20.8-108.938-62.618l-76.305 44.042c-.409-.21-.368-.362-.249-.43l76.057-43.899-10.125-5.834-76.35 44.068c-.409-.21-.368-.362-.25-.431l76.1-43.924-10.646-6.135-76.253 44.014c-.408-.21-.367-.363-.248-.431l76.077-43.915c-.014-.055-.009-.115.018-.17-1.163-.648-4.684-2.657-10.557-6.023L43.86 157.559c-.408-.21-.368-.363-.249-.431l76.09-43.918c-2.851-1.634-6.232-3.575-10.144-5.823l-76.364 44.076c-.409-.21-.368-.362-.249-.43l76.111-43.934c-3.205-1.84-6.758-3.883-10.659-6.126l-76.251 44.014c-.409-.21-.368-.362-.249-.43l76.005-43.87C76.067 88.133 43.493 69.376.18 44.417c-.12-.069-.16-.221-.091-.34.04-.069 32.758 18.733 98.155 56.406l10.27-5.92C86.68 82.006 54.125 63.259 10.848 38.32c-.12-.069-.16-.221-.091-.34.04-.069 32.74 18.723 98.1 56.374l10.46-6.03c-21.831-12.554-54.305-31.254-97.421-56.1-.119-.068-.16-.22-.091-.34.04-.068 32.659 18.677 97.858 56.235l10.598-6.112C108.427 69.452 75.861 50.7 32.563 25.75c-.119-.068-.16-.22-.09-.34.039-.068 32.75 18.73 98.132 56.393l10.46-6.03c-21.832-12.554-54.317-31.26-97.454-56.118-.119-.069-.16-.22-.09-.34.039-.068 32.669 18.682 97.888 56.253l10.79-6.221c-21.833-12.556-54.346-31.278-97.54-56.168-.118-.069-.16-.221-.09-.34.04-.069 32.697 18.698 97.974 56.301l.026-.011c.126.064.209.123.26.176l10.243 5.901.616.355L294.291.175zM152.92 120.317l-10.299 5.94c2.863 1.641 6.244 3.582 10.144 5.823l10.28-5.93-10.125-5.833zm-11.146-6.423l-.262.15-10.085 5.821c1.388.778 4.953 2.813 10.694 6.105l10.3-5.94-10.647-6.136zm21.949.187l-10.488 6.05c2.86 1.64 6.242 3.581 10.143 5.822l10.471-6.038-10.126-5.834zm-11.146-6.423l-10.54 6.08c1.343.752 4.908 2.786 10.697 6.105l10.49-6.05-10.647-6.135zm22.09.106l-10.631 6.13c2.853 1.635 6.234 3.576 10.143 5.822l10.613-6.119-10.125-5.833zm-43.856-.395l-10.299 5.942 10.59 6.102.048.036 10.247-5.913c0-.038.008-.076.025-.112-1.165-.65-4.704-2.669-10.611-6.055zm32.71-6.028l-10.578 6.106c-.002.034-.01.069-.026.101 1.168.65 4.71 2.672 10.623 6.061l10.63-6.132-10.65-6.136zm21.95.187l-10.489 6.05c2.862 1.64 6.243 3.582 10.143 5.822l10.47-6.038-10.124-5.834zm-43.854-.393l-10.492 6.05 10.645 6.133.001.001 10.541-6.08c-1.333-.746-4.898-2.78-10.695-6.104zm-21.447.126l-10.283 5.928 10.126 5.834 10.3-5.94c-2.852-1.635-6.234-3.576-10.143-5.822zm54.153-6.157l-10.338 5.967-.198.115c1.37.767 4.934 2.802 10.694 6.104l10.49-6.05-10.648-6.136zm22.281-.003l-10.821 6.24c2.854 1.636 6.235 3.577 10.144 5.822l10.803-6.228-10.126-5.834zm-44.046-.286l-10.63 6.133 10.647 6.135 10.54-6.084c-.007-.049 0-.1.023-.147-1.165-.649-4.693-2.662-10.58-6.037zm-43.548.032l-10.266 5.922 10.646 6.133 10.28-5.928c-3.206-1.842-6.76-3.884-10.66-6.127zm21.962.178l-10.47 6.038 10.124 5.834 10.489-6.05c-2.86-1.64-6.242-3.581-10.143-5.822zm54.487-6.346l-10.805 6.236c-.005.021-.012.042-.022.063 1.169.65 4.722 2.677 10.655 6.078l10.818-6.242-10.646-6.135zm-65.644-.067l-10.458 6.03 10.646 6.134 10.472-6.037-10.66-6.127zm43.548-.03l-10.49 6.05 10.613 6.115.028.021 10.545-6.083c-1.306-.73-4.871-2.764-10.696-6.104zm-21.446.126l-10.613 6.119 10.126 5.834 10.63-6.13c-2.85-1.635-6.232-3.576-10.143-5.823zm-11.16-6.414l-10.596 6.113 10.646 6.133 10.61-6.12c-3.206-1.841-6.76-3.883-10.66-6.126zm43.74-.14l-10.822 6.24 10.647 6.135 10.87-6.273c-1.226-.683-4.79-2.717-10.696-6.102zm-21.778.317l-10.47 6.04c3.3 1.9 6.675 3.845 10.124 5.833l10.489-6.05c-2.86-1.64-6.24-3.58-10.143-5.823zm-11.157-6.413l-10.457 6.032 10.645 6.133 10.471-6.038c-3.208-1.843-6.761-3.885-10.659-6.127zm22.292-.013l-10.803 6.228 10.125 5.834 10.82-6.24c-2.856-1.638-6.237-3.579-10.142-5.822zm-11.158-6.413l-10.788 6.222 10.646 6.133 10.8-6.229-10.658-6.126z" transform="translate(-130.777 -77.391)"/>
                        </g>
                        <g filter="url(#2wq5g4rekk)" opacity=".734">
                            <g mask="url(#lymtap6iqi)">
                                <g transform="translate(-5.557 -5.336)">
                                    <use fill="url(#ourj0za7dm)" xlink:href="#8as07ytz1l"/>
                                </g>
                            </g>
                        </g>
                    </g>
                </g>
                <g>
                    <path fill="url(#7bx6xjv9dn)" d="M.418 21.596l.05-.03L25.144 6.873c.975-.58 2.817-.237 3.341.608l.027.046 12.042 21.828c.343.622-.215 1.217-1.247 1.33-1.006.108-2.092-.283-2.462-.88l-.026-.045-10.2-18.49c-.23-.415-.972-.69-1.66-.616-.228.025-.43.087-.586.18L3.469 23.28c-.686.409-1.886.376-2.714-.066l-.06-.033c-.81-.462-.926-1.162-.277-1.585zm12.241 2.376l.049-.03 8.164-4.908c.972-.584 2.818-.242 3.345.604l.027.047 4.06 7.329c.344.622-.212 1.217-1.243 1.33-1.006.11-2.093-.281-2.464-.878l-.026-.044-2.577-4.652c-.114-.207-.486-.344-.83-.307-.114.013-.216.044-.294.09l-5.15 3.096c-.683.41-1.883.381-2.713-.06l-.06-.032c-.812-.46-.933-1.16-.288-1.585z" filter="url(#7083fbydno)" transform="translate(-107 -361) translate(108 365) translate(25.405 12.334)"/>
                    <path fill="url(#vc6rvj6kcp)" d="M28.486 4.342l.027.046 10.335 18.735h1.808v3.446c.01.48-.514.886-1.348.976-1.006.11-2.092-.283-2.462-.88l-.026-.044-10.2-18.49c-.23-.415-.972-.69-1.66-.616-.228.025-.43.087-.586.18L3.469 20.14c-.686.409-1.886.376-2.714-.066l-.06-.033c-.377-.215-.603-.482-.672-.748H0V15.85h4.134v.394l21.011-12.51c.975-.58 2.817-.236 3.341.609zm-4.27 12.157l.028.047 2.359 4.258 1.803.001v3.446c-.007.47-.526.864-1.345.954-1.006.11-2.093-.281-2.464-.878l-.026-.044-2.577-4.652c-.114-.207-.486-.345-.83-.307-.114.012-.216.044-.294.09l-5.15 3.096c-.683.41-1.883.381-2.713-.06l-.06-.032c-.526-.299-.762-.697-.688-1.056h-.011v-3.446h4.29l-.001.583 4.335-2.604c.972-.584 2.818-.242 3.345.604z" transform="translate(-107 -361) translate(108 365) translate(25.405 12.334)"/>
                    <path fill="url(#2ns0ee9nzq)" d="M.418 15.012l.05-.03L25.144.287c.975-.58 2.817-.236 3.341.608l.027.047L40.555 22.77c.343.622-.215 1.217-1.247 1.329-1.006.109-2.092-.283-2.462-.88l-.026-.044-10.2-18.49c-.23-.415-.972-.691-1.66-.617-.228.025-.43.087-.586.18L3.469 16.696c-.686.408-1.886.376-2.714-.067l-.06-.033c-.81-.462-.926-1.162-.277-1.584zm12.241 2.375l.049-.03 8.164-4.907c.972-.584 2.818-.242 3.345.603l.027.047 4.06 7.33c.344.621-.212 1.217-1.243 1.33-1.006.11-2.093-.282-2.464-.879l-.026-.044-2.577-4.651c-.114-.207-.486-.345-.83-.307-.114.012-.216.043-.294.09l-5.15 3.096c-.683.41-1.883.38-2.713-.06l-.06-.033c-.812-.46-.933-1.16-.288-1.585z" transform="translate(-107 -361) translate(108 365) translate(25.405 12.334)"/>
                </g>
            </g>
        </g>
    </g>
</svg>
